<svg xmlns="http://www.w3.org/2000/svg" xmlns:xlink="http://www.w3.org/1999/xlink" viewBox="0 0 439 1094.11"><defs><style>.cls-1{fill:#73d4fb}.cls-2{fill:#fbce8a}.cls-3{fill:#7dc4a3}.cls-4{isolation:isolate}.cls-5{fill:#ab93d9}.cls-6{fill:#f2a470}.cls-7{fill:#6dc9db}.cls-8{fill:url(#linear-gradient)}.cls-9{fill:#d87341}.cls-10{fill:url(#linear-gradient-2)}.cls-11{opacity:.1}.cls-12{fill:#fff}.cls-13,.cls-31{fill:#284255}.cls-13,.cls-30{opacity:.75}.cls-14{fill:#fff4f4}.cls-15{fill:#ffc1c1}.cls-152,.cls-16,.cls-33{fill:#59717f}.cls-144,.cls-16,.cls-32{opacity:.3}.cls-17{fill:#f2904f}.cls-18{fill:#edf0f2}.cls-19{clip-path:url(#clip-path)}.cls-20{fill:url(#linear-gradient-3)}.cls-21{fill:url(#linear-gradient-4)}.cls-22{fill:url(#linear-gradient-5)}.cls-23{fill:url(#linear-gradient-6)}.cls-24{fill:url(#linear-gradient-7)}.cls-25{fill:url(#linear-gradient-8)}.cls-26{fill:url(#linear-gradient-9)}.cls-27{fill:url(#linear-gradient-10)}.cls-28{fill:url(#linear-gradient-11)}.cls-29{fill:url(#linear-gradient-12)}.cls-34{fill:#e6ffee}.cls-35{fill:#b6f0c9}.cls-147,.cls-152,.cls-36{opacity:.4}.cls-106,.cls-113,.cls-36,.cls-40,.cls-41,.cls-43,.cls-48,.cls-49,.cls-50,.cls-54,.cls-59,.cls-61,.cls-62,.cls-68{mix-blend-mode:multiply}.cls-37{fill:url(#linear-gradient-13)}.cls-38{fill:url(#linear-gradient-14)}.cls-39{fill:url(#linear-gradient-15)}.cls-40,.cls-41{opacity:.25}.cls-40{fill:url(#linear-gradient-16)}.cls-41{fill:url(#linear-gradient-17)}.cls-42{fill:url(#linear-gradient-18)}.cls-113,.cls-43,.cls-49,.cls-50,.cls-54,.cls-59,.cls-62,.cls-91{opacity:.2}.cls-43{fill:url(#linear-gradient-19)}.cls-44{fill:url(#linear-gradient-20)}.cls-45{fill:url(#linear-gradient-21)}.cls-46{fill:#3c2415}.cls-47{fill:url(#linear-gradient-22)}.cls-49{fill:url(#linear-gradient-23)}.cls-50{fill:url(#linear-gradient-24)}.cls-51{fill:url(#linear-gradient-25)}.cls-52,.cls-61{fill:#e6e7e8}.cls-53{fill:url(#linear-gradient-26)}.cls-54{fill:url(#linear-gradient-27)}.cls-55{fill:url(#linear-gradient-28)}.cls-56{fill:#332924}.cls-57{fill:url(#linear-gradient-29)}.cls-58{fill:url(#linear-gradient-30)}.cls-59{fill:url(#linear-gradient-31)}.cls-60{fill:url(#linear-gradient-32)}.cls-62{fill:url(#linear-gradient-33)}.cls-63{fill:url(#linear-gradient-34)}.cls-64{fill:url(#linear-gradient-35)}.cls-65{fill:url(#linear-gradient-36)}.cls-66{fill:url(#linear-gradient-37)}.cls-67{fill:url(#linear-gradient-38)}.cls-68{opacity:.6}.cls-69{fill:url(#linear-gradient-39)}.cls-70{fill:url(#linear-gradient-40)}.cls-71{fill:#30afbf}.cls-72{fill:url(#linear-gradient-41)}.cls-73{fill:#51c5db}.cls-74{clip-path:url(#clip-path-2)}.cls-75{fill:url(#linear-gradient-42)}.cls-76{fill:url(#linear-gradient-43)}.cls-77{fill:url(#linear-gradient-44)}.cls-78{fill:url(#linear-gradient-45)}.cls-79{fill:url(#linear-gradient-46)}.cls-80{fill:url(#linear-gradient-47)}.cls-81{fill:url(#linear-gradient-48)}.cls-82{fill:url(#linear-gradient-49)}.cls-83{fill:url(#linear-gradient-50)}.cls-84{fill:url(#linear-gradient-51)}.cls-85{fill:url(#linear-gradient-52)}.cls-86{fill:url(#linear-gradient-53)}.cls-87{fill:url(#linear-gradient-54)}.cls-88{fill:url(#linear-gradient-55)}.cls-89{fill:url(#linear-gradient-56)}.cls-106,.cls-127,.cls-90{opacity:.5}.cls-90{fill:url(#linear-gradient-57)}.cls-91{mix-blend-mode:screen}.cls-144,.cls-185,.cls-92{fill:none}.cls-93{fill:#6e615a}.cls-94{fill:url(#linear-gradient-58)}.cls-95{fill:url(#linear-gradient-59)}.cls-96{fill:url(#linear-gradient-60)}.cls-97{fill:url(#linear-gradient-61)}.cls-98{fill:url(#linear-gradient-62)}.cls-99{fill:url(#linear-gradient-63)}.cls-100{fill:url(#linear-gradient-64)}.cls-101{fill:url(#linear-gradient-65)}.cls-102{fill:url(#linear-gradient-66)}.cls-103,.cls-119,.cls-137{opacity:.15}.cls-103{fill:url(#linear-gradient-67)}.cls-104{fill:url(#linear-gradient-68)}.cls-105{fill:url(#linear-gradient-69)}.cls-107{fill:url(#linear-gradient-70)}.cls-108{fill:#3d7a99}.cls-109{fill:url(#linear-gradient-71)}.cls-110{fill:url(#linear-gradient-72)}.cls-111{fill:#a0e6e6}.cls-112{fill:url(#linear-gradient-73)}.cls-114{fill:url(#linear-gradient-74)}.cls-115{fill:url(#linear-gradient-75)}.cls-116{fill:url(#linear-gradient-76)}.cls-117{fill:url(#linear-gradient-77)}.cls-118{fill:url(#linear-gradient-78)}.cls-119{fill:url(#linear-gradient-79)}.cls-120{fill:url(#linear-gradient-80)}.cls-121{fill:url(#linear-gradient-81)}.cls-122{fill:url(#linear-gradient-82)}.cls-123{fill:url(#linear-gradient-83)}.cls-124{fill:url(#linear-gradient-84)}.cls-125{fill:url(#linear-gradient-85)}.cls-126{fill:url(#linear-gradient-86)}.cls-127{fill:#512929}.cls-128{fill:#296a44}.cls-129{fill:url(#linear-gradient-87)}.cls-130{fill:url(#linear-gradient-88)}.cls-131{fill:url(#linear-gradient-89)}.cls-132{fill:url(#linear-gradient-90)}.cls-133{fill:url(#linear-gradient-91)}.cls-134{fill:url(#linear-gradient-92)}.cls-135{fill:#7759b3}.cls-136{fill:url(#linear-gradient-93)}.cls-137{fill:url(#linear-gradient-94)}.cls-138{fill:#b8c4cc}.cls-139{fill:#dae0e5}.cls-140{fill:#eaedef}.cls-141{fill:#ebeef0}.cls-142{fill:#f0fdff}.cls-143{fill:#89dce5}.cls-144{stroke:#59717f;stroke-miterlimit:10;stroke-width:.52px}.cls-145{fill:#edeeef}.cls-146{fill:#16be00}.cls-148{fill:#fff8ed}.cls-149{fill:#ffb266}.cls-150{fill:#f5f0ff}.cls-151{fill:#b999ff}.cls-153{fill:#3a5668}.cls-154{fill:#25c16f}.cls-155{clip-path:url(#clip-path-3)}.cls-156{fill:url(#linear-gradient-95)}.cls-157{fill:url(#linear-gradient-96)}.cls-158{fill:url(#linear-gradient-97)}.cls-159{fill:url(#linear-gradient-98)}.cls-160{fill:url(#linear-gradient-99)}.cls-161{fill:url(#linear-gradient-100)}.cls-162{fill:url(#linear-gradient-101)}.cls-163{fill:url(#linear-gradient-102)}.cls-164{fill:url(#linear-gradient-103)}.cls-165{fill:url(#linear-gradient-104)}.cls-166{clip-path:url(#clip-path-4)}.cls-167{fill:url(#linear-gradient-105)}.cls-168{fill:url(#linear-gradient-106)}.cls-169{fill:url(#linear-gradient-107)}.cls-170{fill:url(#linear-gradient-108)}.cls-171{fill:url(#linear-gradient-109)}.cls-172{fill:url(#linear-gradient-110)}.cls-173{fill:url(#linear-gradient-111)}.cls-174{fill:url(#linear-gradient-112)}.cls-175{fill:url(#linear-gradient-113)}.cls-176{fill:url(#linear-gradient-114)}.cls-177{clip-path:url(#clip-path-5)}.cls-178{fill:url(#linear-gradient-115)}.cls-179{fill:url(#linear-gradient-116)}.cls-180{fill:url(#linear-gradient-117)}.cls-181{fill:#b46f7b}.cls-182{fill:url(#linear-gradient-118)}.cls-183{fill:url(#linear-gradient-119)}.cls-184{fill:url(#linear-gradient-120)}.cls-185{stroke:#9daab2;stroke-linecap:round;stroke-linejoin:round;stroke-width:4px}</style><linearGradient id="linear-gradient" x1="188.79" y1="821.85" x2="188.79" y2="912" gradientUnits="userSpaceOnUse"><stop offset="0" stop-color="#f2a470"/><stop offset=".37" stop-color="#eea06e"/><stop offset=".74" stop-color="#e39467"/><stop offset="1" stop-color="#d8875f"/></linearGradient><linearGradient id="linear-gradient-2" x1="2444.45" y1="948.17" x2="2561.17" y2="948.17" gradientTransform="matrix(-1 0 0 1 2701.94 0)" gradientUnits="userSpaceOnUse"><stop offset="0" stop-color="#fc9"/><stop offset="1" stop-color="#e68e5c"/></linearGradient><clipPath id="clip-path"><path id="_Clipping_Path_" data-name="&amp;lt;Clipping Path&amp;gt;" class="cls-1" d="M165.14 961.66c0 4.06 3 5.64 6.6 3.53s6.6-7.1 6.6-11.15-3-5.64-6.6-3.53-6.6 7.09-6.6 11.15z"/></clipPath><linearGradient id="linear-gradient-3" x1="2694.55" y1="3358.4" x2="2698.63" y2="3362.53" gradientTransform="matrix(-.67 -.34 -.55 1.21 3818.92 -2198.41)" gradientUnits="userSpaceOnUse"><stop offset="0" stop-color="#d6a19b"/><stop offset="1" stop-color="#ffd6d2"/></linearGradient><linearGradient id="linear-gradient-4" x1="5415.22" y1="1047.43" x2="5427.79" y2="1047.43" gradientTransform="matrix(-.87 .5 0 1.15 4866.9 -2955.3)" gradientUnits="userSpaceOnUse"><stop offset="0" stop-color="#d65f70"/><stop offset="1" stop-color="#ff8595"/></linearGradient><linearGradient id="linear-gradient-5" x1="2970.67" y1="3248.13" x2="2974.3" y2="3248.13" gradientTransform="matrix(-.7 -.27 -.51 1.23 3905.64 -2224.56)" xlink:href="#linear-gradient-4"/><linearGradient id="linear-gradient-6" x1="5415.98" y1="1035.22" x2="5428.06" y2="1044.84" gradientTransform="matrix(-.87 .5 0 1.15 4866.9 -2955.3)" gradientUnits="userSpaceOnUse"><stop offset="0" stop-color="#2b2022"/><stop offset="1" stop-color="#452a2d"/></linearGradient><linearGradient id="linear-gradient-7" x1="5419.26" y1="1039.64" x2="5417.33" y2="1043.45" gradientTransform="matrix(-.87 .5 0 1.15 4866.9 -2955.3)" gradientUnits="userSpaceOnUse"><stop offset="0" stop-color="#ffd6d2"/><stop offset="1" stop-color="#d6a19b"/></linearGradient><linearGradient id="linear-gradient-8" x1="5425.05" y1="1039.64" x2="5423.13" y2="1043.45" xlink:href="#linear-gradient-7"/><linearGradient id="linear-gradient-9" x1="5416.92" y1="1033.07" x2="5422.88" y2="1041.91" gradientTransform="matrix(-.87 .5 0 1.15 4866.9 -2955.3)" xlink:href="#linear-gradient-3"/><linearGradient id="linear-gradient-10" x1="5423.47" y1="1038.48" x2="5425.97" y2="1040.48" xlink:href="#linear-gradient-6"/><linearGradient id="linear-gradient-11" x1="5416.9" y1="1034.38" x2="5426.87" y2="1042.33" xlink:href="#linear-gradient-6"/><linearGradient id="linear-gradient-12" x1="5417.25" y1="1038.56" x2="5419.95" y2="1040.71" xlink:href="#linear-gradient-6"/><linearGradient id="linear-gradient-13" x1="255.3" y1="1057.12" x2="234.01" y2="1085.37" gradientUnits="userSpaceOnUse"><stop offset="0" stop-color="#a7a9ac" stop-opacity="0"/><stop offset=".15" stop-color="#a7a9ac" stop-opacity=".02"/><stop offset=".3" stop-color="#a7a9ac" stop-opacity=".09"/><stop offset=".46" stop-color="#a7a9ac" stop-opacity=".21"/><stop offset=".61" stop-color="#a7a9ac" stop-opacity=".38"/><stop offset=".77" stop-color="#a7a9ac" stop-opacity=".59"/><stop offset=".86" stop-color="#a7a9ac" stop-opacity=".74"/><stop offset="1" stop-color="#a7a9ac"/></linearGradient><linearGradient id="linear-gradient-14" x1="2895.57" y1="968.91" x2="2898.6" y2="996.78" gradientTransform="matrix(-1 0 0 1 3101.85 0)" gradientUnits="userSpaceOnUse"><stop offset="0" stop-color="#b89883"/><stop offset=".5" stop-color="#b58f73"/><stop offset="1" stop-color="#8f6d56"/></linearGradient><linearGradient id="linear-gradient-15" x1="2839.39" y1="973.5" x2="2849.79" y2="1069.34" xlink:href="#linear-gradient-14"/><linearGradient id="linear-gradient-16" x1="2841.94" y1="995.14" x2="2842.71" y2="995.14" gradientTransform="matrix(-1 0 0 1 3101.85 0)" gradientUnits="userSpaceOnUse"><stop offset="0" stop-color="#f2bb7e"/><stop offset=".58" stop-color="#ffd69c"/><stop offset="1" stop-color="#ffe1a8"/></linearGradient><linearGradient id="linear-gradient-17" x1="2848.46" y1="950.14" x2="2848.46" y2="950.14" gradientTransform="matrix(-1 0 0 1 3101.85 0)" gradientUnits="userSpaceOnUse"><stop offset="0" stop-color="#73c694"/><stop offset=".58" stop-color="#93e5b6"/><stop offset="1" stop-color="#a7f2c5"/></linearGradient><linearGradient id="linear-gradient-18" x1="2960.85" y1="684.32" x2="2973.77" y2="659.78" gradientTransform="matrix(-1.03 .05 .06 1.06 3269.54 108.13)" xlink:href="#linear-gradient-16"/><linearGradient id="linear-gradient-19" x1="2840.75" y1="985.56" x2="2844.06" y2="985.56" gradientTransform="matrix(-1 0 0 1 3101.85 0)" gradientUnits="userSpaceOnUse"><stop offset="0" stop-color="#96551e"/><stop offset=".52" stop-color="#996f33"/><stop offset="1" stop-color="#a87b33"/></linearGradient><linearGradient id="linear-gradient-20" x1="3076.43" y1="949.81" x2="3059.66" y2="949.21" gradientTransform="matrix(-1 .06 .06 1 3247.97 -57.65)" gradientUnits="userSpaceOnUse"><stop offset="0" stop-color="#594a42"/><stop offset=".5" stop-color="#8b5e3c"/><stop offset="1" stop-color="#603913"/></linearGradient><linearGradient id="linear-gradient-21" x1="3095.86" y1="959" x2="3079.09" y2="958.4" xlink:href="#linear-gradient-20"/><linearGradient id="linear-gradient-22" x1="2920.23" y1="992.96" x2="2951.36" y2="996.03" gradientTransform="matrix(-1 .02 .02 1 3154.35 -17.38)" gradientUnits="userSpaceOnUse"><stop offset="0" stop-color="#242438"/><stop offset="1" stop-color="#34344c"/></linearGradient><linearGradient id="linear-gradient-23" x1="2930.33" y1="943.62" x2="2946.54" y2="1177.54" gradientTransform="matrix(-1 .02 .02 1 3154.35 -17.38)" gradientUnits="userSpaceOnUse"><stop offset="0" stop-color="#17325e"/><stop offset=".52" stop-color="#1a3b7d"/><stop offset="1" stop-color="#294e89"/></linearGradient><linearGradient id="linear-gradient-24" x1="2934.76" y1="963.17" x2="2949.33" y2="1173.34" xlink:href="#linear-gradient-23"/><linearGradient id="linear-gradient-25" x1="2877.24" y1="964.46" x2="2834.16" y2="1000.62" xlink:href="#linear-gradient-16"/><linearGradient id="linear-gradient-26" x1="2854.35" y1="948.6" x2="2863.36" y2="948.6" xlink:href="#linear-gradient-14"/><linearGradient id="linear-gradient-27" x1="2874.22" y1="969.4" x2="2876.74" y2="992.61" xlink:href="#linear-gradient-19"/><linearGradient id="linear-gradient-28" x1="2866.04" y1="932.88" x2="2847.76" y2="947.72" xlink:href="#linear-gradient-14"/><linearGradient id="linear-gradient-29" x1="2866.7" y1="937.96" x2="2861.47" y2="941.62" gradientTransform="matrix(-.99 -.13 -.13 .99 3201.39 389.19)" gradientUnits="userSpaceOnUse"><stop offset="0" stop-color="#b89883"/><stop offset=".72" stop-color="#b58f73"/><stop offset="1" stop-color="#8f6d56"/></linearGradient><linearGradient id="linear-gradient-30" x1="2867.94" y1="968.76" x2="2906.68" y2="968.76" xlink:href="#linear-gradient-16"/><linearGradient id="linear-gradient-31" x1="2853.43" y1="954.35" x2="2864.37" y2="954.35" gradientTransform="matrix(-1 0 0 1 3101.85 0)" gradientUnits="userSpaceOnUse"><stop offset="0" stop-color="#996f33"/><stop offset=".52" stop-color="#996f33"/><stop offset="1" stop-color="#996f33"/></linearGradient><linearGradient id="linear-gradient-32" x1="2852.95" y1="952.68" x2="2864.89" y2="952.68" xlink:href="#linear-gradient-16"/><linearGradient id="linear-gradient-33" x1="2903.62" y1="975.58" x2="2904.69" y2="975.58" gradientTransform="matrix(-1 0 0 1 3101.85 0)" gradientUnits="userSpaceOnUse"><stop offset="0" stop-color="#175e2f"/><stop offset=".52" stop-color="#1a7d4c"/><stop offset="1" stop-color="#298949"/></linearGradient><linearGradient id="linear-gradient-34" x1="686.53" y1="1175.25" x2="695.66" y2="1169.28" gradientTransform="matrix(-.99 .16 .16 .99 732.44 -338.85)" gradientUnits="userSpaceOnUse"><stop offset="0" stop-color="#276641"/><stop offset=".58" stop-color="#41a36f"/><stop offset="1" stop-color="#6adb97"/></linearGradient><linearGradient id="linear-gradient-35" x1="691.68" y1="1181.84" x2="698.06" y2="1181.84" gradientTransform="matrix(-1 0 0 1 933.48 -241.74)" xlink:href="#linear-gradient-34"/><linearGradient id="linear-gradient-36" x1="695.61" y1="1185.7" x2="700.33" y2="1185.7" gradientTransform="matrix(-.99 .16 .16 .99 732.44 -338.85)" gradientUnits="userSpaceOnUse"><stop offset="0" stop-color="#276641"/><stop offset="1" stop-color="#41a36f"/></linearGradient><linearGradient id="linear-gradient-37" x1="692.33" y1="1182.19" x2="698.71" y2="1182.19" gradientTransform="matrix(-1 0 0 1 933.54 -241.64)" gradientUnits="userSpaceOnUse"><stop offset="0" stop-color="#3c9e64"/><stop offset=".58" stop-color="#4dbf82"/><stop offset="1" stop-color="#6adb97"/></linearGradient><linearGradient id="linear-gradient-38" x1="3572.54" y1="939.11" x2="3569.54" y2="943.65" gradientTransform="translate(-3333.56)" xlink:href="#linear-gradient-36"/><linearGradient id="linear-gradient-39" x1="41.19" y1="937.01" x2="-2.88" y2="954.19" gradientUnits="userSpaceOnUse"><stop offset="0" stop-color="#a7a9ac" stop-opacity="0"/><stop offset=".15" stop-color="#a7a9ac" stop-opacity=".02"/><stop offset=".3" stop-color="#a7a9ac" stop-opacity=".09"/><stop offset=".46" stop-color="#a7a9ac" stop-opacity=".21"/><stop offset=".61" stop-color="#a7a9ac" stop-opacity=".38"/><stop offset=".77" stop-color="#a7a9ac" stop-opacity=".59"/><stop offset=".92" stop-color="#a7a9ac" stop-opacity=".85"/><stop offset="1" stop-color="#a7a9ac"/></linearGradient><linearGradient id="linear-gradient-40" x1="82.17" y1="741.64" x2="56.57" y2="766.89" gradientUnits="userSpaceOnUse"><stop offset="0" stop-color="#6dc9db"/><stop offset=".35" stop-color="#69c6d7"/><stop offset=".71" stop-color="#5dbdcd"/><stop offset="1" stop-color="#4db2bf"/></linearGradient><linearGradient id="linear-gradient-41" x1="5.69" y1="820.43" x2="122.41" y2="820.43" gradientUnits="userSpaceOnUse"><stop offset="0" stop-color="#a4dfeb"/><stop offset="1" stop-color="#6bc"/></linearGradient><clipPath id="clip-path-2"><path id="_Clipping_Path_2" data-name="&amp;lt;Clipping Path&amp;gt;" class="cls-1" d="M29.08 792.81c0 4.06 3 9 6.6 11.15s6.6.52 6.6-3.53-3-9-6.6-11.15-6.6-.52-6.6 3.53z"/></clipPath><linearGradient id="linear-gradient-42" x1="2077.95" y1="4291.54" x2="2082.03" y2="4295.68" gradientTransform="matrix(-.67 -1.12 -.55 .58 3777.16 620.86)" xlink:href="#linear-gradient-3"/><linearGradient id="linear-gradient-43" x1="5524.11" y1="2160.57" x2="5536.68" y2="2160.57" gradientTransform="matrix(-.87 -.5 0 1.15 4825.13 1074.07)" xlink:href="#linear-gradient-4"/><linearGradient id="linear-gradient-44" x1="2407.15" y1="4214.26" x2="2410.78" y2="4214.26" gradientTransform="matrix(-.7 -1.08 -.51 .64 3863.88 694.85)" xlink:href="#linear-gradient-4"/><linearGradient id="linear-gradient-45" x1="5524.87" y1="2148.37" x2="5536.95" y2="2157.99" gradientTransform="matrix(-.87 -.5 0 1.15 4825.13 1074.07)" xlink:href="#linear-gradient-6"/><linearGradient id="linear-gradient-46" x1="5528.15" y1="2152.79" x2="5526.22" y2="2156.6" gradientTransform="matrix(-.87 -.5 0 1.15 4825.13 1074.07)" xlink:href="#linear-gradient-7"/><linearGradient id="linear-gradient-47" x1="5533.94" y1="2152.79" x2="5532.02" y2="2156.6" gradientTransform="matrix(-.87 -.5 0 1.15 4825.13 1074.07)" xlink:href="#linear-gradient-7"/><linearGradient id="linear-gradient-48" x1="5525.81" y1="2146.22" x2="5531.77" y2="2155.06" gradientTransform="matrix(-.87 -.5 0 1.15 4825.13 1074.07)" xlink:href="#linear-gradient-3"/><linearGradient id="linear-gradient-49" x1="5532.36" y1="2151.63" x2="5534.86" y2="2153.62" gradientTransform="matrix(-.87 -.5 0 1.15 4825.13 1074.07)" xlink:href="#linear-gradient-6"/><linearGradient id="linear-gradient-50" x1="5525.79" y1="2147.53" x2="5535.76" y2="2155.47" gradientTransform="matrix(-.87 -.5 0 1.15 4825.13 1074.07)" xlink:href="#linear-gradient-6"/><linearGradient id="linear-gradient-51" x1="5526.14" y1="2151.7" x2="5528.84" y2="2153.85" gradientTransform="matrix(-.87 -.5 0 1.15 4825.13 1074.07)" xlink:href="#linear-gradient-6"/><linearGradient id="linear-gradient-52" x1="6397.83" y1="915.37" x2="6430.38" y2="903.99" gradientTransform="matrix(-1 0 0 1 6428.68 0)" gradientUnits="userSpaceOnUse"><stop offset="0" stop-color="#e0a28c"/><stop offset=".5" stop-color="#efb29a"/><stop offset="1" stop-color="#fcc9bb"/></linearGradient><linearGradient id="linear-gradient-53" x1="6370.87" y1="943.81" x2="6390.73" y2="935.56" gradientTransform="matrix(-1 0 0 1 6394.68 0)" gradientUnits="userSpaceOnUse"><stop offset="0" stop-color="#1c2126"/><stop offset=".39" stop-color="#303841"/><stop offset="1" stop-color="#45525b"/></linearGradient><linearGradient id="linear-gradient-54" x1="6384.1" y1="921.15" x2="6417.1" y2="909.62" xlink:href="#linear-gradient-52"/><linearGradient id="linear-gradient-55" x1="6357.36" y1="950.47" x2="6380.25" y2="940.76" xlink:href="#linear-gradient-53"/><linearGradient id="linear-gradient-56" x1="6358.58" y1="875.26" x2="6398.73" y2="886.43" gradientTransform="matrix(-1 0 0 1 6394.68 0)" gradientUnits="userSpaceOnUse"><stop offset="0" stop-color="#333380"/><stop offset=".52" stop-color="#4848b3"/><stop offset="1" stop-color="#7070cc"/></linearGradient><linearGradient id="linear-gradient-57" x1="3.69" y1="875.12" x2="35.78" y2="884.04" xlink:href="#linear-gradient-56"/><linearGradient id="linear-gradient-58" x1="6369.58" y1="815.8" x2="6379.4" y2="821.94" gradientTransform="matrix(-1 0 0 1 6394.68 0)" xlink:href="#linear-gradient-52"/><linearGradient id="linear-gradient-59" x1="6354.27" y1="814.21" x2="6385.35" y2="801.82" gradientTransform="matrix(-1 .04 .04 1 6357.93 -249.96)" xlink:href="#linear-gradient-52"/><linearGradient id="linear-gradient-60" x1="6365.11" y1="807.56" x2="6387.2" y2="795.97" gradientTransform="matrix(-1 0 0 1 6394.68 0)" gradientUnits="userSpaceOnUse"><stop offset="0" stop-color="#141719"/><stop offset=".5" stop-color="#23272b"/><stop offset="1" stop-color="#343d42"/></linearGradient><linearGradient id="linear-gradient-61" x1="6325.87" y1="864.35" x2="6396.39" y2="830.96" gradientTransform="matrix(-1 0 0 1 6394.68 0)" gradientUnits="userSpaceOnUse"><stop offset="0" stop-color="#7070cc"/><stop offset="1" stop-color="#99f"/></linearGradient><linearGradient id="linear-gradient-62" x1="-2126.97" y1="1504.07" x2="-2116.92" y2="1497.49" gradientTransform="rotate(9.34 3255.394 14292.212)" xlink:href="#linear-gradient-34"/><linearGradient id="linear-gradient-63" x1="-2121.25" y1="1511.07" x2="-2114.41" y2="1511.07" gradientTransform="rotate(90 -693.77 2232.5)" xlink:href="#linear-gradient-34"/><linearGradient id="linear-gradient-64" x1="-2117.04" y1="1515.22" x2="-2111.97" y2="1515.22" gradientTransform="rotate(9.34 3255.394 14292.212)" xlink:href="#linear-gradient-36"/><linearGradient id="linear-gradient-65" x1="-2120.55" y1="1511.45" x2="-2113.71" y2="1511.45" gradientTransform="rotate(90 -693.155 2232.895)" xlink:href="#linear-gradient-37"/><linearGradient id="linear-gradient-66" x1="6401.41" y1="807.38" x2="6398.19" y2="812.24" gradientTransform="matrix(-1 0 0 1 6428.68 0)" xlink:href="#linear-gradient-36"/><linearGradient id="linear-gradient-67" x1="22.57" y1="854.5" x2="44.41" y2="833.57" gradientUnits="userSpaceOnUse"><stop offset="0" stop-color="#45494d"/><stop offset="1" stop-color="#3d454d"/></linearGradient><linearGradient id="linear-gradient-68" x1="4109.05" y1="2304.47" x2="4159.22" y2="2304.47" gradientTransform="rotate(66.24 3200.787 -1561.26)" gradientUnits="userSpaceOnUse"><stop offset="0" stop-color="#ffd3b6"/><stop offset=".5" stop-color="#f0be99"/><stop offset="1" stop-color="#dda885"/></linearGradient><linearGradient id="linear-gradient-69" x1="6391.4" y1="841.4" x2="6405.5" y2="827.89" gradientTransform="matrix(-1 0 0 1 6428.68 0)" xlink:href="#linear-gradient-61"/><linearGradient id="linear-gradient-70" x1="260.35" y1="819.18" x2="226.87" y2="852.2" xlink:href="#linear-gradient-39"/><linearGradient id="linear-gradient-71" x1="185.02" y1="804.41" x2="325.58" y2="917.31" gradientUnits="userSpaceOnUse"><stop offset="0" stop-color="#0f8399"/><stop offset="1" stop-color="#a0e6e6"/></linearGradient><linearGradient id="linear-gradient-72" x1="197.87" y1="791.86" x2="334.81" y2="901.86" xlink:href="#linear-gradient-71"/><linearGradient id="linear-gradient-73" x1="167.18" y1="717.93" x2="130.33" y2="802.61" gradientTransform="translate(68.49 38.99)" gradientUnits="userSpaceOnUse"><stop offset="0" stop-color="#43484d"/><stop offset="1" stop-color="#3a434d"/></linearGradient><linearGradient id="linear-gradient-74" x1="246.14" y1="765.89" x2="216.08" y2="834.96" xlink:href="#linear-gradient-73"/><linearGradient id="linear-gradient-75" x1="258.39" y1="780.36" x2="237.87" y2="827.5" xlink:href="#linear-gradient-73"/><linearGradient id="linear-gradient-76" x1="3067.63" y1="730.61" x2="3055.12" y2="761.39" gradientTransform="matrix(-1 0 0 1 3328.76 0)" gradientUnits="userSpaceOnUse"><stop offset="0" stop-color="#c6774f"/><stop offset=".5" stop-color="#d9936c"/><stop offset="1" stop-color="#e5956c"/></linearGradient><linearGradient id="linear-gradient-77" x1="265.56" y1="705.8" x2="256.04" y2="744.62" gradientUnits="userSpaceOnUse"><stop offset="0" stop-color="#a0e6e6"/><stop offset="1" stop-color="#0f8399"/></linearGradient><linearGradient id="linear-gradient-78" x1="266.46" y1="704.92" x2="232.01" y2="760.26" xlink:href="#linear-gradient-77"/><linearGradient id="linear-gradient-79" x1="242.34" y1="730.06" x2="215.98" y2="767.26" xlink:href="#linear-gradient-73"/><linearGradient id="linear-gradient-80" x1="3086.98" y1="766.7" x2="3113.61" y2="737.04" xlink:href="#linear-gradient-76"/><linearGradient id="linear-gradient-81" x1="230.16" y1="718.76" x2="224.3" y2="742.92" xlink:href="#linear-gradient-77"/><linearGradient id="linear-gradient-82" x1="242.24" y1="720.38" x2="246.78" y2="715.25" gradientUnits="userSpaceOnUse"><stop offset="0" stop-color="#c68463"/><stop offset=".67" stop-color="#d99f7e"/><stop offset="1" stop-color="#e5a280"/></linearGradient><linearGradient id="linear-gradient-83" x1="2021.11" y1="715.66" x2="2024.66" y2="719.5" gradientTransform="matrix(-1 0 0 1 2264.26 0)" xlink:href="#linear-gradient-82"/><linearGradient id="linear-gradient-84" x1="262.68" y1="705.6" x2="241.1" y2="721.45" gradientUnits="userSpaceOnUse"><stop offset="0" stop-color="#9fe3e3"/><stop offset="1" stop-color="#4d8c99"/></linearGradient><linearGradient id="linear-gradient-85" x1="2012.65" y1="710.39" x2="2024.51" y2="704.71" gradientTransform="matrix(-1 0 0 1 2264.26 0)" gradientUnits="userSpaceOnUse"><stop offset="0" stop-color="#c68463"/><stop offset=".5" stop-color="#d99f7e"/><stop offset="1" stop-color="#e5a280"/></linearGradient><linearGradient id="linear-gradient-86" x1="2010.84" y1="700.62" x2="2029.14" y2="703.96" gradientTransform="matrix(-1 0 0 1 2264.26 0)" gradientUnits="userSpaceOnUse"><stop offset="0" stop-color="#592c10"/><stop offset=".5" stop-color="#733d1e"/><stop offset="1" stop-color="#874529"/></linearGradient><linearGradient id="linear-gradient-87" x1="2020.5" y1="716.25" x2="2028.03" y2="711.78" gradientTransform="matrix(-1 0 0 1 2264.26 0)" xlink:href="#linear-gradient-37"/><linearGradient id="linear-gradient-88" x1="242.67" y1="716.61" x2="245.48" y2="716.61" xlink:href="#linear-gradient-36"/><linearGradient id="linear-gradient-89" x1="2010.56" y1="699.49" x2="2027.82" y2="699.49" gradientTransform="matrix(-1 0 0 1 2264.26 0)" xlink:href="#linear-gradient-34"/><linearGradient id="linear-gradient-90" x1="2025.86" y1="710.82" x2="2029.42" y2="703.95" gradientTransform="matrix(-.02 -1 -1 .02 977.57 2723.75)" xlink:href="#linear-gradient-37"/><linearGradient id="linear-gradient-91" x1="235.29" y1="710.3" x2="241.01" y2="703.19" xlink:href="#linear-gradient-36"/><linearGradient id="linear-gradient-92" x1="308.19" y1="693.49" x2="308.19" y2="723.44" gradientUnits="userSpaceOnUse"><stop offset="0" stop-color="#ab93d9"/><stop offset=".31" stop-color="#a78fd5"/><stop offset=".63" stop-color="#9b83ca"/><stop offset=".95" stop-color="#876fb6"/><stop offset="1" stop-color="#836bb3"/></linearGradient><linearGradient id="linear-gradient-93" x1="2722.07" y1="762.9" x2="2838.79" y2="762.9" gradientTransform="matrix(-1 0 0 1 3095.12 0)" gradientUnits="userSpaceOnUse"><stop offset="0" stop-color="#c8b4f0"/><stop offset="1" stop-color="#86c"/></linearGradient><linearGradient id="linear-gradient-94" x1="232.71" y1="377.09" x2="204.08" y2="430.14" gradientUnits="userSpaceOnUse"><stop offset="0" stop-opacity="0"/><stop offset="1"/></linearGradient><clipPath id="clip-path-3"><path id="_Clipping_Path_3" data-name="&amp;lt;Clipping Path&amp;gt;" class="cls-1" d="M117.45 236.88c0 10.5-7.37 14.76-16.47 9.51s-16.47-18-16.47-28.52 7.37-14.76 16.47-9.51 16.47 18.02 16.47 28.52z"/></clipPath><linearGradient id="linear-gradient-95" x1="-1979.64" y1="-56.14" x2="-1969.41" y2="-45.77" gradientTransform="matrix(.67 -.34 .55 1.21 1456.31 -375.86)" xlink:href="#linear-gradient-3"/><linearGradient id="linear-gradient-96" x1="-370.59" y1="1347.43" x2="-339.22" y2="1347.43" gradientTransform="matrix(.87 .5 0 1.15 408.34 -1132.74)" xlink:href="#linear-gradient-4"/><linearGradient id="linear-gradient-97" x1="-1887.87" y1="105.61" x2="-1878.78" y2="105.61" gradientTransform="matrix(.7 -.27 .51 1.23 1369.59 -402)" xlink:href="#linear-gradient-4"/><linearGradient id="linear-gradient-98" x1="-368.82" y1="1316.14" x2="-338.34" y2="1340.42" gradientTransform="matrix(.87 .5 0 1.15 408.34 -1132.74)" xlink:href="#linear-gradient-6"/><linearGradient id="linear-gradient-99" x1="-360.45" y1="1327.31" x2="-365.39" y2="1337.07" gradientTransform="matrix(.87 .5 0 1.15 408.34 -1132.74)" xlink:href="#linear-gradient-7"/><linearGradient id="linear-gradient-100" x1="-345.99" y1="1327.31" x2="-350.93" y2="1337.07" gradientTransform="matrix(.87 .5 0 1.15 408.34 -1132.74)" xlink:href="#linear-gradient-7"/><linearGradient id="linear-gradient-101" x1="-366.61" y1="1310.55" x2="-351.39" y2="1333.13" gradientTransform="matrix(.87 .5 0 1.15 408.34 -1132.74)" xlink:href="#linear-gradient-3"/><linearGradient id="linear-gradient-102" x1="-350.11" y1="1324.27" x2="-343.62" y2="1329.44" gradientTransform="matrix(.87 .5 0 1.15 408.34 -1132.74)" xlink:href="#linear-gradient-6"/><linearGradient id="linear-gradient-103" x1="-366.44" y1="1313.95" x2="-341.42" y2="1333.88" gradientTransform="matrix(.87 .5 0 1.15 408.34 -1132.74)" xlink:href="#linear-gradient-6"/><linearGradient id="linear-gradient-104" x1="-365.6" y1="1324.49" x2="-358.66" y2="1330.02" gradientTransform="matrix(.87 .5 0 1.15 408.34 -1132.74)" xlink:href="#linear-gradient-6"/><clipPath id="clip-path-4"><path id="_Clipping_Path_4" data-name="&amp;lt;Clipping Path&amp;gt;" class="cls-2" d="M117.45 151.31c0 10.5-7.37 14.76-16.47 9.51s-16.47-18-16.47-28.52 7.37-14.76 16.47-9.51 16.47 18.02 16.47 28.52z"/></clipPath><linearGradient id="linear-gradient-105" x1="-2339.16" y1="187.01" x2="-2328.92" y2="197.38" gradientTransform="matrix(.67 -.34 .55 1.21 1565.48 -877.95)" gradientUnits="userSpaceOnUse"><stop offset="0" stop-color="#ffd6d2"/><stop offset=".18" stop-color="#fcd2cd"/><stop offset=".37" stop-color="#f1c5c0"/><stop offset=".58" stop-color="#e0afaa"/><stop offset=".79" stop-color="#c9918b"/><stop offset="1" stop-color="#ab6c65"/></linearGradient><linearGradient id="linear-gradient-106" x1="-496.65" y1="1762.73" x2="-465.27" y2="1762.73" gradientTransform="matrix(.87 .5 0 1.15 517.51 -1634.84)" gradientUnits="userSpaceOnUse"><stop offset="0" stop-color="#262262"/><stop offset="1" stop-color="#2b3990"/></linearGradient><linearGradient id="linear-gradient-107" x1="-486.35" y1="1756.35" x2="-475.58" y2="1756.35" xlink:href="#linear-gradient-106"/><linearGradient id="linear-gradient-108" x1="-494.88" y1="1731.45" x2="-464.4" y2="1755.72" gradientTransform="matrix(.87 .5 0 1.15 517.51 -1634.84)" xlink:href="#linear-gradient-6"/><linearGradient id="linear-gradient-109" x1="-486.51" y1="1742.62" x2="-491.45" y2="1752.38" gradientTransform="matrix(.87 .5 0 1.15 517.51 -1634.84)" xlink:href="#linear-gradient-7"/><linearGradient id="linear-gradient-110" x1="-472.05" y1="1742.62" x2="-476.99" y2="1752.38" gradientTransform="matrix(.87 .5 0 1.15 517.51 -1634.84)" xlink:href="#linear-gradient-7"/><linearGradient id="linear-gradient-111" x1="-475.6" y1="1739.96" x2="-498.88" y2="1758.2" gradientTransform="matrix(.87 .5 0 1.15 517.51 -1634.84)" xlink:href="#linear-gradient-105"/><linearGradient id="linear-gradient-112" x1="-476.17" y1="1739.58" x2="-469.68" y2="1744.75" gradientTransform="matrix(.87 .5 0 1.15 517.51 -1634.84)" xlink:href="#linear-gradient-6"/><linearGradient id="linear-gradient-113" x1="-492.61" y1="1728.51" x2="-464.99" y2="1750.5" gradientTransform="matrix(.87 .5 0 1.15 517.51 -1634.84)" xlink:href="#linear-gradient-6"/><linearGradient id="linear-gradient-114" x1="-491.48" y1="1739.56" x2="-484.53" y2="1745.09" gradientTransform="matrix(.87 .5 0 1.15 517.51 -1634.84)" xlink:href="#linear-gradient-6"/><clipPath id="clip-path-5"><path id="_Clipping_Path_5" data-name="&amp;lt;Clipping Path&amp;gt;" class="cls-3" d="M117.45 322.45c0 10.5-7.37 14.76-16.47 9.51s-16.47-18-16.47-28.52 7.37-14.76 16.47-9.51 16.47 18.07 16.47 28.52z"/></clipPath><linearGradient id="linear-gradient-115" x1="-2432.52" y1="302.12" x2="-2422.28" y2="312.49" gradientTransform="matrix(.67 -.34 .55 1.21 1565.48 -877.95)" xlink:href="#linear-gradient-3"/><linearGradient id="linear-gradient-116" x1="-496.65" y1="1910.95" x2="-465.27" y2="1910.95" gradientTransform="matrix(.87 .5 0 1.15 517.51 -1634.84)" gradientUnits="userSpaceOnUse"><stop offset="0" stop-color="#b7c1e3"/><stop offset="1" stop-color="#9ba4cf"/></linearGradient><linearGradient id="linear-gradient-117" x1="-2320.02" y1="488.61" x2="-2310.93" y2="488.61" gradientTransform="matrix(.7 -.27 .51 1.23 1478.76 -904.1)" xlink:href="#linear-gradient-116"/><linearGradient id="linear-gradient-118" x1="-486.51" y1="1890.83" x2="-491.45" y2="1900.59" gradientTransform="matrix(.87 .5 0 1.15 517.51 -1634.84)" xlink:href="#linear-gradient-7"/><linearGradient id="linear-gradient-119" x1="-472.05" y1="1890.83" x2="-476.99" y2="1900.59" gradientTransform="matrix(.87 .5 0 1.15 517.51 -1634.84)" xlink:href="#linear-gradient-7"/><linearGradient id="linear-gradient-120" x1="-489.38" y1="1894.96" x2="-472.61" y2="1894.96" gradientTransform="matrix(.87 .5 0 1.15 517.51 -1634.84)" gradientUnits="userSpaceOnUse"><stop offset="0" stop-color="#ffc8bf"/><stop offset="1" stop-color="#ffd8d1"/></linearGradient></defs><title>home-banner-image</title><g class="cls-4"><g id="Layer_2" data-name="Layer 2"><g id="Layer_1-2" data-name="Layer 1"><path class="cls-5" d="M307.2 392.94h2v398.14h-2z"/><path class="cls-6" d="M187.79 393.2h2v397.89h-2z"/><path class="cls-7" d="M68.37 337.85h2v453.24h-2z"/><path class="cls-6" d="M187.79 691.09h2v190.74h-2z"/><path class="cls-8" d="M187.79 821.85h2V912h-2z"/><path class="cls-9" d="M251.71 887.5a1.47 1.47 0 0 0-1.32 0c-3.08 1.28-5.85 1.2-8 0l5 2.89c2.1 1.22 4.87 1.3 8 0a1.47 1.47 0 0 1 1.32 0zM237.84 879.6a1.65 1.65 0 0 0-1.66.16l-84.28 48.66a5.19 5.19 0 0 0-2.31 3.65 31.92 31.92 0 0 1-11.81 20.44 5.21 5.21 0 0 0-2 3.81l.12 45.23a1.64 1.64 0 0 0 .68 1.5l5 2.89a1.64 1.64 0 0 1-.68-1.5l-.12-45.23a5.21 5.21 0 0 1 2-3.81 31.92 31.92 0 0 0 11.79-20.4 5.19 5.19 0 0 1 2.31-3.65l84.28-48.66a1.65 1.65 0 0 1 1.66-.16zM150.84 1006l-5-2.89c2.07 1.2 3.5 3.52 3.94 6.74a1.46 1.46 0 0 0 .65 1.13l5 2.89a1.46 1.46 0 0 1-.65-1.13c-.44-3.25-1.86-5.56-3.94-6.74z"/><path class="cls-10" d="M156.88 931.31a5.19 5.19 0 0 0-2.31 3.65 31.92 31.92 0 0 1-11.81 20.44 5.21 5.21 0 0 0-2 3.81l.12 45.23c0 1.35.86 2 2 1.5 6.1-2.52 11 .27 11.89 6.78.17 1.22 1.15 1.64 2.32 1L241.38 965a5.22 5.22 0 0 0 2.31-3.63 31.91 31.91 0 0 1 11.81-20.46 5.18 5.18 0 0 0 2-3.81l-.12-45.23c0-1.33-.86-2-2-1.5-6.12 2.53-11-.25-11.89-6.76-.17-1.23-1.16-1.65-2.32-1z"/><path class="cls-11" d="M236.93 896l-76.17 43.93c-2.2 1.27-3 2.36-3 4.81l-.19 59.71c0 2.69 2 2.11 4.69.48l73.13-42.18c2.2-1.27 3-2.36 3-4.81l.19-61c0-1.2-.58-1.54-1.65-.94z"/><path class="cls-12" d="M160.42 938.73l76.17-44c2.2-1.27 3-1.15 3 1.3l.19 60.82a3.24 3.24 0 0 1-1.65 2.8l-76.17 44c-2.2 1.27-3 1.15-3-1.3l-.19-60.82a3.24 3.24 0 0 1 1.65-2.8z"/><path class="cls-13" d="M189.72 928.8l-18.63 10.76c-.24.14-.44 0-.44-.31a1 1 0 0 1 .44-.82l18.63-10.76c.24-.14.44 0 .44.31a1 1 0 0 1-.44.82z"/><path class="cls-14" d="M171.08 944.83c-.11 0-.14-.2-.14-.32a1.43 1.43 0 0 1 .58-1.1l4.13-2.38a.33.33 0 0 1 .15-.05c.11 0 .14.2.14.32a1.43 1.43 0 0 1-.58 1.1l-4.13 2.38a.33.33 0 0 1-.15.05z"/><path class="cls-15" d="M175.65 941.36a1.14 1.14 0 0 1-.44.79l-4 2.31a1.14 1.14 0 0 1 .44-.8l4-2.3m.15-.67a.6.6 0 0 0-.3.09l-4.13 2.38a1.7 1.7 0 0 0-.72 1.35c0 .38.18.6.43.6a.6.6 0 0 0 .3-.09l4.13-2.38a1.7 1.7 0 0 0 .72-1.35c0-.38-.18-.6-.43-.6z"/><path class="cls-16" d="M195.44 927.83L171 942c-.17.1-.3 0-.3-.21a.71.71 0 0 1 .3-.56l24.48-14.14c.17-.1.3 0 .3.21a.71.71 0 0 1-.34.53z"/><path class="cls-17" d="M169.48 942.43a7.29 7.29 0 0 1-3.36 5.68c-1.85 1.07-3.36.27-3.36-1.8a7.29 7.29 0 0 1 3.36-5.68c1.88-1.07 3.36-.27 3.36 1.8z"/><path class="cls-18" d="M233.95 911.9l-70.6 40.84a1.23 1.23 0 0 0-.59 1.11v32.66a1.3 1.3 0 0 0 2 1.06l70.53-40.84a1.18 1.18 0 0 0 .52-1.11V913a1.19 1.19 0 0 0-1.86-1.1z"/><path id="_Clipping_Path_6" data-name="&amp;lt;Clipping Path&amp;gt;" class="cls-1" d="M165.14 961.66c0 4.06 3 5.64 6.6 3.53s6.6-7.1 6.6-11.15-3-5.64-6.6-3.53-6.6 7.09-6.6 11.15z"/><g class="cls-19"><path class="cls-20" d="M171.08 962.85a.82.82 0 0 0 .66-.12 2.28 2.28 0 0 0 1.05-1.77v-3.71c0-.64-.47-.9-1-.57a2.28 2.28 0 0 0-1.05 1.77v3.71a.65.65 0 0 0 .34.69z"/><path class="cls-21" d="M171.65 962.12l3.71-2.14c.49-.28 1-.1 1.18.68l.64 2.59a2.36 2.36 0 0 1-.89 1.89l-9.1 5.25c-.49.28-.89-.1-.89-.86l.84-3.43c.24-1.07.4-1.61.89-1.89z"/><path class="cls-22" d="M170.09 963.31c1.64.19 3.2-1.87 3.27-2 .23-.31.3-.7.14-.87s-.47-.05-.71.26c-.05.07-1.1 1.41-2.16 1.29-.24 0-.56.24-.71.59s-.05.68.17.73z"/><path class="cls-23" d="M175 952.71s0 3.79-1.09 4.72-4.36 2.73-4.58 2.6-1.43-3.73-.48-4.49c.6-.54 6.15-2.83 6.15-2.83z"/><path class="cls-24" d="M173.7 956.4c0 .36.26.5.59.31a1.27 1.27 0 0 0 .59-1c0-.36-.26-.5-.59-.31a1.27 1.27 0 0 0-.59 1z"/><path class="cls-25" d="M168.69 959.29c0 .36.26.5.59.31a1.27 1.27 0 0 0 .59-1c0-.36-.26-.5-.59-.31a1.27 1.27 0 0 0-.59 1z"/><path class="cls-26" d="M174.66 952.47l-.5 4.81a5.62 5.62 0 0 1-.68 2.1 3.83 3.83 0 0 1-1.72 1.63c-.79.46-1.28.56-1.71.33a1.61 1.61 0 0 1-.72-1.31l-.48-4.2z"/><path class="cls-27" d="M169.11 956.62a2.36 2.36 0 0 1 .14.94 6.6 6.6 0 0 0-.08 1.19s-.78-2.62-.33-2.92.27.79.27.79z"/><path class="cls-28" d="M175 952.94s-3.81 3.64-5.3 3.85c-.9.13-1.2-1-1-1.83.3-.96 6.66-6.05 6.3-2.02z"/><path class="cls-29" d="M173.91 953.93s.11.22.24.51a6.46 6.46 0 0 1 .17 1.34l.35-2.65-.38-.12z"/></g><path class="cls-30 cls-31" d="M181.41 950.66A.9.9 0 0 1 181 949l45.41-26.24a.9.9 0 1 1 .9 1.56l-45.41 26.24a.9.9 0 0 1-.49.1zM181.41 955.74a.9.9 0 0 1-.45-1.68l25.63-14.81a.9.9 0 0 1 .9 1.56l-25.63 14.81a.9.9 0 0 1-.45.12z"/><path class="cls-32 cls-33" d="M213.64 942a.45.45 0 0 1-.23-.84l10.65-6.16a.45.45 0 1 1 .45.78l-10.64 6.15a.44.44 0 0 1-.23.07zM200.65 949.49a.45.45 0 0 1-.23-.84l11.18-6.46a.45.45 0 1 1 .45.78l-11.18 6.46a.44.44 0 0 1-.22.06zM181.41 960.61a.45.45 0 0 1-.23-.84l17.34-10a.45.45 0 0 1 .45.78l-17.34 10a.44.44 0 0 1-.22.06zM198.87 953.78a.45.45 0 0 1-.23-.84l17.11-9.89a.45.45 0 0 1 .45.78l-17.11 9.89a.44.44 0 0 1-.22.06zM187.89 960.13a.45.45 0 0 1-.23-.84l8.93-5.16a.45.45 0 0 1 .45.78l-8.93 5.16a.44.44 0 0 1-.22.06zM181.41 963.87a.45.45 0 0 1-.23-.84l4.62-2.67a.45.45 0 0 1 .45.78l-4.62 2.67a.44.44 0 0 1-.22.06zM208 951.75a.45.45 0 0 1-.23-.84l14.83-8.57a.45.45 0 0 1 .45.78l-14.83 8.57a.44.44 0 0 1-.22.06zM181.41 967.14a.45.45 0 0 1-.23-.84l25.06-14.48a.45.45 0 0 1 .45.78l-25.06 14.48a.44.44 0 0 1-.22.06zM215.74 950.56a.45.45 0 0 1-.23-.84l4.91-2.84a.45.45 0 0 1 .45.78L216 950.5a.44.44 0 0 1-.26.06zM193.5 963.42a.45.45 0 0 1-.23-.84l20.4-11.79a.45.45 0 1 1 .45.78l-20.4 11.79a.44.44 0 0 1-.22.06zM181.41 970.41a.45.45 0 0 1-.23-.84l10-5.77a.45.45 0 0 1 .45.78l-10 5.77a.44.44 0 0 1-.22.06zM216.46 953.42a.45.45 0 0 1-.23-.84l9.62-5.56a.45.45 0 1 1 .45.78l-9.62 5.56a.44.44 0 0 1-.22.06zM203.74 960.76a.45.45 0 0 1-.23-.84l10.65-6.16a.45.45 0 0 1 .45.78L204 960.7a.44.44 0 0 1-.26.06zM181.41 973.67a.45.45 0 0 1-.23-.84L201.73 961a.45.45 0 1 1 .45.78l-20.55 11.88a.44.44 0 0 1-.22.01z"/><path class="cls-34" d="M163.19 997.52a.54.54 0 0 1-.43-.49v-4a2 2 0 0 1 .92-1.44l15.15-8.7c.08 0 0-.07.06-.07s.1.26.1.49v4a1.71 1.71 0 0 1-.54 1.44l-15.06 8.7a.41.41 0 0 1-.2.07z"/><path class="cls-35" d="M179 983.1v4.18a1.53 1.53 0 0 1-.54 1.2l-15 8.7h.13s.12-.1.12-.18v-4a1.5 1.5 0 0 1 .47-1.2l15-8.7H179m.22-.6a.91.91 0 0 0-.41.11l-15.13 8.7a2.18 2.18 0 0 0-.95 1.69v4c0 .49.26.78.57.78a.77.77 0 0 0 .37-.11l15.18-8.7a2.23 2.23 0 0 0 1-1.69v-4a.71.71 0 0 0-.64-.78z"/><path class="cls-34" d="M182.17 986.54a.59.59 0 0 1-.47-.49v-4a2.06 2.06 0 0 1 1-1.44l15.18-8.7a1.86 1.86 0 0 1 .47-.07.63.63 0 0 1 .51.49v4a2 2 0 0 1-1 1.44l-15.28 8.7a1.52 1.52 0 0 1-.41.07z"/><path class="cls-35" d="M198 972.12s-.08.1-.08.18v4a1.51 1.51 0 0 1-.5 1.2l-15 8.7h.1s.09-.1.09-.18v-4a1.52 1.52 0 0 1 .51-1.2l15-8.7H198m.23-.6a.83.83 0 0 0-.38.11l-15.16 8.7a2.21 2.21 0 0 0-1 1.69v4c0 .49.3.78.61.78a.85.85 0 0 0 .39-.11l15.15-8.7a2.2 2.2 0 0 0 1-1.69v-4c0-.49-.29-.78-.6-.78z"/><path class="cls-34" d="M201.59 975.56c-.18 0-.06-.26-.06-.49v-4a1.72 1.72 0 0 1 .56-1.44l15-8.7a.94.94 0 0 1 .33-.07c.18 0 .37.26.37.49v4a2 2 0 0 1-.91 1.44l-15.06 8.7a.41.41 0 0 1-.23.07z"/><path class="cls-35" d="M217 961.14s-.12.1-.12.18v4a1.49 1.49 0 0 1-.46 1.2l-15 8.7h.07s.06-.1.06-.18v-4a1.54 1.54 0 0 1 .56-1.2l15-8.7H217m.22-.6a.75.75 0 0 0-.36.11l-15.19 8.7a2.24 2.24 0 0 0-1 1.69v4a.72.72 0 0 0 .66.78.93.93 0 0 0 .41-.11l15.12-8.7a2.17 2.17 0 0 0 .94-1.69v-4c0-.49-.24-.78-.56-.78z"/><path class="cls-36 cls-37" d="M214.77 1080c0 7.79 10.45 14.11 23.34 14.11 5.49 0 5.25-6.34 9.23-8.26 5.37-2.59 14.1-1.38 14.1-5.85 0-7.79-10.45-14.11-23.34-14.11-5.31 0-5.68 5.75-9.6 7.56-5.59 2.55-13.73 1.96-13.73 6.55z"/><path class="cls-38" d="M186.95 969.41a4.22 4.22 0 0 1 5.17-3l2 .54a4.2 4.2 0 0 1 2.15 1.38l13.91 4.31c2.89.9 5.51-1.1 6.22-1.71l.11-.13 2.68-2.81a3.6 3.6 0 1 1 5.21 5l-2.8 2.94-.34.33V976a13.56 13.56 0 0 1-8.93 3.6c-1.45.9-2.9.12-4.28-.31L194 975.05a4.19 4.19 0 0 1-2 0l-2-.51a4.19 4.19 0 0 1-3.05-5.13z"/><path class="cls-39" d="M258.13 982.35v-.09a5.3 5.3 0 0 0 0-.78L256.89 964a3.27 3.27 0 0 1 3-3.49c1.81-.12 1.89-.06 2 1.74l2.68 18.57a11.93 11.93 0 0 1 .05 1.57L265 1003a3.7 3.7 0 0 1 .55 1.92v1.33a3.72 3.72 0 0 1-3.73 3.71h.11a3.62 3.62 0 0 1-3.6-3.71V1005a3.64 3.64 0 0 1 .22-1.55z"/><path class="cls-40" d="M259.89 987a127.87 127.87 0 0 1-.59 15.16l-.15 1.19"/><path id="_Path_" data-name="&amp;lt;Path&amp;gt;" class="cls-42" d="M262.1 1001.8a4 4 0 0 0 .74-.11 4.15 4.15 0 0 0 3-5l-1.26-22.23a24.45 24.45 0 0 0-.41-3.39l-2.33-16.24a4 4 0 0 0-4.87-3.08 4.15 4.15 0 0 0-3 5l4 41.86a4.07 4.07 0 0 0 4.13 3.19z"/><path class="cls-43" d="M260.3 965.45s1.48 29.33.41 31.13c-.64 1.07-2 .83-1.77 2.89.22 2.39.9 8-.3 8.77s-.78-11.28-.78-11.28l1.71-34.11z"/><path class="cls-44" d="M255.83 1073.38l.18 3a2.89 2.89 0 0 1-.89 2.28 4.65 4.65 0 0 1-5 1.16c-2.42-.94-7.27-4.32-10.27-6.5a2.75 2.75 0 0 1 1.87-5 7.27 7.27 0 0 1 1 .2c4.73 1.26 8.82 2.17 8.82 2.17z"/><path class="cls-45" d="M237 1083.72l.18 3a2.89 2.89 0 0 1-.89 2.28 4.65 4.65 0 0 1-5 1.16c-2.42-.94-7.27-4.32-10.27-6.5a2.75 2.75 0 0 1 1.87-5 7.27 7.27 0 0 1 1 .2c4.73 1.26 8.82 2.17 8.82 2.17z"/><path class="cls-46" d="M221 1083.05c3 2.18 7.85 5.56 10.27 6.5a4.65 4.65 0 0 0 5-1.16 2.87 2.87 0 0 0 .88-2.06v.39a2.89 2.89 0 0 1-.89 2.28 4.65 4.65 0 0 1-5 1.16c-2.42-.94-7.27-4.32-10.27-6.5a2.68 2.68 0 0 1-1.13-2.46 2.68 2.68 0 0 0 1.14 1.85zM239.79 1072.71c3 2.18 7.85 5.56 10.27 6.5a4.65 4.65 0 0 0 5-1.16 2.87 2.87 0 0 0 .94-2.05v.39a2.89 2.89 0 0 1-.89 2.28 4.65 4.65 0 0 1-5 1.16c-2.42-.94-7.27-4.32-10.27-6.5a2.68 2.68 0 0 1-1.13-2.46 2.68 2.68 0 0 0 1.08 1.84z"/><path class="cls-47" d="M226 1009c0-.12.07-2.19.06-2.31l-.45-9.93 33.14-1.07.14 8a15.15 15.15 0 0 1-1.35 8.06l-3 30.37 1.51 30.45a4.63 4.63 0 0 1-4.58 4.47h-.1a2.66 2.66 0 0 1-2.93-2c-.22-1-.43-.95-.64-2s-.27-3.52-.47-4.55a275.16 275.16 0 0 1-3.73-27.82c-.81-9.6-1.44-17.65-1.76-23.9l-.49.12-5.68 24 1.43 43.13c-.08 2.47-3.11 3-5.58 3-1.09 0-2.68-.57-2.77-2 0-.74-.51-1.68-.57-2.6s.2-2 .13-3.06c-.76-10.79-4-28.27-4.4-37.82-.67-14.66 1.74-26.95 2.09-32.54z"/><g class="cls-48"><path class="cls-49" d="M254.09 1072.52l-1.51-30.45 3-30.37c1.16-2.28 2.51-12.14 1.56-11.79-26.88 10.08-27.78 8.34-27.78 8.34l29.4-12.62.14 8a15.15 15.15 0 0 1-1.35 8.06l-3 30.37 1.51 30.45a4.63 4.63 0 0 1-4.58 4.47h-.1a2.49 2.49 0 0 1-.74-.12 4.62 4.62 0 0 0 3.45-4.34z"/><path class="cls-50" d="M235.14 1084.07l-1.43-43.25 5.33-24.28 1.11-.19.52-.09 6.48-1.91-.58.88a1.62 1.62 0 0 1-1.14.55l-4.07 1.05-5.69 23.95 1.43 43.13c-.08 2.47-3.11 3-5.58 3-.12 0-.25.1-.39.07 2.01-.28 3.95-.98 4.01-2.91z"/></g><path id="_Path_2" data-name="&amp;lt;Path&amp;gt;" class="cls-51" d="M225.13 1004.8c0 .47 0-.27.09.22a4.56 4.56 0 0 0 6.29 2.85l24-8.79c3.1-1.35 4.2-1.85 4.27-4.31l.77-37.34c.08-2.64-.85-6-3.3-5.76h-3a55.92 55.92 0 0 0-20.57 3.78l-5.08 2c-2.11.17-3.7 3.58-3.77 5.85v8.67a3.09 3.09 0 0 0 0 .85l.87 9.87c.14 1.17.38 5.4.37 6.58l-.89 15.14q-.07.17-.05.39z"/><path class="cls-52" d="M248.3 950.54l-.88-.49-.19.98 1.07-.49z"/><path class="cls-53" d="M243 954.31a4.48 4.48 0 0 0 4.51-4.25v-2.91a4.52 4.52 0 0 0-9 0v2.91a4.48 4.48 0 0 0 4.49 4.25z"/><path class="cls-54" d="M231 966.65s-5.78 9.89-5.73 11.34c-.22-3-.69-7.86-.69-7.86z"/><path class="cls-55" d="M234.55 930s-.93 10.25 1.86 16 10.52 2 10.52 2l1.81-17.89z"/><path class="cls-56" d="M234.6 926.34c2.15.31.56-1.73 2.27-2.52 3.78-.17 3.45-.22 4.23.18.42-.74 1.17-2.45 5.85.5.41.26.78.5 1.1.72a16.23 16.23 0 0 1 5.46 4.38 9.43 9.43 0 0 1 2 5c.78 4.52-1.72 10.08-5.16 13.15-2.67 2.39-6.65 2.48-8.59 1-1.74-1.34-3.13-4.07-4.11-8.34A43.19 43.19 0 0 1 235 934c-1.05-.52-2.6-1.31-3-2.28-.86-1.83.45-5.72 2.6-5.38z"/><path class="cls-56" d="M236.04 936.88v1.62l.9-.7-.9-.92z"/><circle class="cls-57" cx="237.8" cy="939.81" r="2.2" transform="rotate(-7.64 237.879 940.002)"/><path id="_Path_3" data-name="&amp;lt;Path&amp;gt;" class="cls-58" d="M211.35 980.6a15.13 15.13 0 0 0 10.85-4.42l.08-.09 10.58-11.67a4.75 4.75 0 0 0-.44-6.4 4.25 4.25 0 0 0-6 .31l-10.74 11.9a6.06 6.06 0 0 1-5.48 1.77l-9.54-2.88a4.25 4.25 0 0 0-2.46 8.14l10.08 3a14.77 14.77 0 0 0 3.07.34z"/><path class="cls-59" d="M248.43 953.56l-8.79 1.58-2.15-.73 10.94-.85z"/><path class="cls-60" d="M237 954.31l2.15-2.77h.28c0-.12.13-.21.31-.23l8.4-.79a.51.51 0 0 1 .56.47l.24 2a.54.54 0 0 1-.46.6l-8.54 1.3a.66.66 0 0 1-.18 0z"/><path class="cls-61" d="M264.87 998s-3 1.73-5.49.4a4.17 4.17 0 0 0 5.49-.4zM199.91 976s-.59-3.41 1.53-5.29a4.17 4.17 0 0 0-1.53 5.29z"/><circle class="cls-62" cx="197.7" cy="975.58" r=".53"/><path class="cls-63" d="M238.94 937.41a.87.87 0 0 0 .73-.9c-.17-3.56.76-6.71 3-8.64a25.59 25.59 0 0 1 5.05-2.89 1.47 1.47 0 0 0-1-.59 10 10 0 0 0-7.29 4.63 14 14 0 0 0-1.54 7.57.87.87 0 0 0 .91.83z"/><ellipse class="cls-64" cx="238.61" cy="940.1" rx="3.19" ry="4.02" transform="rotate(-9.34 238.617 940.174)"/><path class="cls-65" d="M235.95 946.34c2-.33 2.34-3.31 2.36-3.43a.58.58 0 0 0-1.15-.12s-.26 2.22-1.39 2.41a.64.64 0 0 1-.74-.31.59.59 0 0 0-.77-.28.57.57 0 0 0-.29.75 1.8 1.8 0 0 0 1.98.98z"/><ellipse class="cls-66" cx="238.02" cy="940.55" rx="3.19" ry="4.02" transform="rotate(-9.34 238.087 940.624)"/><path class="cls-67" d="M236 940.89a2.37 2.37 0 0 1 1.6-2.89 1.89 1.89 0 0 1 1.59.52 3 3 0 0 1 .59 3.56 1.89 1.89 0 0 1-1.34 1h-.3a2.46 2.46 0 0 1-2.14-2.19zm1.7-2.49a2 2 0 0 0-1.31 2.43 2 2 0 0 0 2 1.88 1.51 1.51 0 0 0 1.06-.81 2.65 2.65 0 0 0-.51-3.08 1.58 1.58 0 0 0-1-.44z"/><path class="cls-68 cls-69" d="M40.24 945.22c0 6.15-9 11.13-20.12 11.13-4.74 0-4.52-5-8-6.51C7.53 947.8 0 948.75 0 945.22c0-6.15 9-11.13 20.12-11.13 4.58 0 4.9 4.53 8.28 6 4.82 1.99 11.84 1.52 11.84 5.13z"/><path class="cls-7" d="M68.37 691.09h2v69.24h-2z"/><path class="cls-70" d="M68.37 729.68h2v49.17h-2z"/><path class="cls-71" d="M11.47 759.76a1.47 1.47 0 0 1 1.32 0c3.08 1.28 5.85 1.2 8 0l-5 2.89c-2.1 1.22-4.87 1.3-8 0a1.47 1.47 0 0 0-1.32 0zM25.34 751.86A1.65 1.65 0 0 1 27 752l84.28 48.66a5.19 5.19 0 0 1 2.31 3.65 31.92 31.92 0 0 0 11.81 20.44 5.21 5.21 0 0 1 2 3.81l-.12 45.23a1.64 1.64 0 0 1-.68 1.5l-5 2.89a1.64 1.64 0 0 0 .68-1.5l.12-45.23a5.21 5.21 0 0 0-2-3.81 31.92 31.92 0 0 1-11.81-20.44 5.19 5.19 0 0 0-2.31-3.65L22 754.91a1.65 1.65 0 0 0-1.66-.16zM112.34 878.24l5-2.89c-2.07 1.2-3.5 3.52-3.94 6.74a1.46 1.46 0 0 1-.65 1.13l-5 2.89a1.46 1.46 0 0 0 .65-1.13c.44-3.23 1.86-5.54 3.94-6.74z"/><path class="cls-72" d="M106.3 803.57a5.19 5.19 0 0 1 2.31 3.65 31.92 31.92 0 0 0 11.81 20.44 5.21 5.21 0 0 1 2 3.81l-.12 45.23c0 1.35-.86 2-2 1.5-6.1-2.52-11 .27-11.89 6.78-.17 1.22-1.15 1.64-2.32 1l-84.29-48.7a5.22 5.22 0 0 1-2.31-3.63 31.91 31.91 0 0 0-11.81-20.46 5.18 5.18 0 0 1-2-3.81l.12-45.23c0-1.33.86-2 2-1.5 6.12 2.53 11-.25 11.89-6.76.17-1.23 1.16-1.65 2.32-1z"/><path class="cls-11" d="M26 767.72l76.17 43.93c2.2 1.27 3 2.36 3 4.81l.19 61c0 1.14-.63 1.48-1.65.89l-76.12-43.88c-2.2-1.27-3-2.36-3-4.81l-.19-61c-.06-1.19.6-1.53 1.6-.94z"/><path class="cls-12" d="M24.35 764.43l76.17 43.93c2.2 1.27 3 2.36 3 4.81l.19 61c0 1.14-.63 1.48-1.65.89l-76.12-43.88c-2.2-1.27-3-2.36-3-4.81l-.19-61c-.05-1.19.57-1.53 1.6-.94z"/><path class="cls-13" d="M53.65 788.34L35 777.59a1 1 0 0 1-.44-.82c0-.31.2-.45.44-.31l18.63 10.76a1 1 0 0 1 .44.82c.03.3-.17.44-.42.3z"/><path class="cls-14" d="M39.73 785.57a.33.33 0 0 1-.15-.05l-4.13-2.38a1.43 1.43 0 0 1-.58-1.1c0-.12 0-.32.14-.32a.33.33 0 0 1 .15.05l4.13 2.38a1.43 1.43 0 0 1 .58 1.1c0 .12-.03.32-.14.32z"/><path class="cls-15" d="M35.16 782.09l4 2.3a1.14 1.14 0 0 1 .44.79l-4-2.3a1.14 1.14 0 0 1-.44-.79m-.15-.66c-.25 0-.43.22-.43.6a1.7 1.7 0 0 0 .72 1.35l4.13 2.38a.6.6 0 0 0 .3.09c.25 0 .43-.22.43-.6a1.7 1.7 0 0 0-.72-1.35l-4.13-2.38a.6.6 0 0 0-.3-.09z"/><path class="cls-16" d="M59.37 794l-24.49-14.17a.71.71 0 0 1-.3-.56c0-.21.14-.31.3-.21l24.48 14.14a.71.71 0 0 1 .3.56c.01.24-.12.31-.29.24z"/><path class="cls-73" d="M33.41 778.59c0 2.06-1.5 2.87-3.36 1.8a7.29 7.29 0 0 1-3.36-5.68c0-2.06 1.5-2.87 3.36-1.8a7.29 7.29 0 0 1 3.36 5.68z"/><path class="cls-18" d="M98 822.67l-70.55-40.75c-.41-.24-.53-.1-.53.35v32.66a5.09 5.09 0 0 0 1.87 3.35L99.36 859c.41.24.57.1.57-.35V826a5.19 5.19 0 0 0-1.93-3.33z"/><path id="_Clipping_Path_7" data-name="&amp;lt;Clipping Path&amp;gt;" class="cls-1" d="M29.08 792.81c0 4.06 3 9 6.6 11.15s6.6.52 6.6-3.53-3-9-6.6-11.15-6.6-.52-6.6 3.53z"/><g class="cls-74"><path class="cls-75" d="M35 800.86a2.09 2.09 0 0 0 .66.64c.58.34 1 .09 1.05-.56v-3.7a2.27 2.27 0 0 0-1-1.77c-.58-.34-1-.09-1.05.56v3.7a2.12 2.12 0 0 0 .34 1.13z"/><path class="cls-76" d="M35.58 800.79l3.71 2.14a3 3 0 0 1 1.18 2l.64 3.32c0 .76-.4 1.15-.89.86l-9.1-5.25a2.36 2.36 0 0 1-.89-1.89l.84-2.46c.24-.8.4-1.15.89-.86z"/><path class="cls-77" d="M34 800.17c1.64 2.08 3.2 1.83 3.27 1.82.23 0 .3-.36.14-.71s-.47-.6-.71-.56a2.48 2.48 0 0 1-2.16-1.2c-.24-.3-.56-.41-.71-.23a.77.77 0 0 0 .17.88z"/><path class="cls-78" d="M38.93 795.24s0 3.78-1.09 3.46a18.77 18.77 0 0 1-4.58-2.7c-.21-.37-1.43-5.38-.48-5 .6.17 6.15 4.24 6.15 4.24z"/><path class="cls-79" d="M37.63 797.43a1.27 1.27 0 0 0 .59 1c.32.19.59 0 .59-.31a1.27 1.27 0 0 0-.59-1c-.32-.19-.59-.05-.59.31z"/><path class="cls-80" d="M32.62 794.54a1.27 1.27 0 0 0 .59 1c.32.19.59 0 .59-.31a1.27 1.27 0 0 0-.59-1c-.33-.23-.59-.05-.59.31z"/><path class="cls-81" d="M38.59 794.61l-.5 4.23a1.77 1.77 0 0 1-.68 1.32c-.44.29-.89.12-1.72-.36a4.3 4.3 0 0 1-1.69-1.65 5.35 5.35 0 0 1-.72-2.14l-.48-4.75z"/><path class="cls-82" d="M33 792.36a3.84 3.84 0 0 1 .14 1.1 5.34 5.34 0 0 0-.08 1.1s-.78-3.52-.33-3.3.27 1.1.27 1.1z"/><path class="cls-83" d="M38.92 795.46s-3.81-.76-5.3-2.27a3.69 3.69 0 0 1-1-3c.38-.5 6.67 1.68 6.3 5.27z"/><path class="cls-84" d="M37.84 795.21s.11.34.24.78a9.45 9.45 0 0 1 .17 1.53l.35-2.25-.38-.56z"/></g><path class="cls-30 cls-31" d="M90.74 826.78a.9.9 0 0 1-.45-.12l-45.4-26.19a.9.9 0 1 1 .9-1.56L91.2 825.1a.9.9 0 0 1-.45 1.68zM71 820.46a.9.9 0 0 1-.45-.12l-25.66-14.78a.9.9 0 1 1 .9-1.56l25.63 14.78a.9.9 0 0 1-.45 1.68z"/><path class="cls-32 cls-33" d="M88.22 835.28a.46.46 0 0 1-.23-.06l-10.64-6.14a.45.45 0 0 1 .45-.78l10.64 6.14a.45.45 0 0 1-.23.84zM75.77 828.09a.45.45 0 0 1-.22-.06l-11.18-6.45a.45.45 0 0 1 .45-.78L76 827.25a.45.45 0 0 1-.23.84zM62.68 820.55a.45.45 0 0 1-.22-.06l-17.34-10a.45.45 0 0 1 .45-.78l17.34 10a.45.45 0 0 1-.23.84zM79.91 833.75a.45.45 0 0 1-.22-.06l-17.11-9.87A.45.45 0 0 1 63 823l17.11 9.87a.45.45 0 0 1-.23.84zM60.74 822.7a.45.45 0 0 1-.22-.06l-8.93-5.15a.45.45 0 0 1 .45-.78l8.96 5.14a.45.45 0 0 1-.23.84zM50 816.48a.45.45 0 0 1-.22-.06l-4.62-2.67a.45.45 0 0 1 .45-.78l4.62 2.67a.45.45 0 0 1-.23.84zM86.79 841a.46.46 0 0 1-.23-.06l-14.83-8.55a.45.45 0 0 1 .45-.78L87 840.14a.45.45 0 0 1-.23.84zM70.4 831.53a.45.45 0 0 1-.22-.06L45.11 817a.45.45 0 0 1 .45-.78l25.06 14.45a.45.45 0 0 1-.23.84zM84.58 843a.46.46 0 0 1-.23-.06l-4.91-2.83a.45.45 0 0 1 .45-.78l4.91 2.83a.45.45 0 0 1-.23.84zM77.82 839.08a.45.45 0 0 1-.22-.06l-20.4-11.77a.45.45 0 0 1 .45-.78L78 838.24a.45.45 0 0 1-.23.84zM55.32 826.1a.45.45 0 0 1-.22-.06l-10-5.75a.45.45 0 0 1 .45-.78l10 5.75a.45.45 0 0 1-.23.84zM90 849.37a.46.46 0 0 1-.23-.06l-9.62-5.55a.45.45 0 0 1 .45-.78l9.62 5.55a.45.45 0 0 1-.23.84zM78.33 842.63a.45.45 0 0 1-.22-.06l-10.65-6.14a.45.45 0 0 1 .45-.78l10.65 6.14a.45.45 0 0 1-.23.84zM65.89 835.46a.45.45 0 0 1-.22-.06l-20.56-11.85a.45.45 0 0 1 .45-.78l20.55 11.85a.45.45 0 0 1-.23.84z"/><path class="cls-34" d="M43 835.74c-.06 0-.09 0-.16-.07L27.7 827a1.88 1.88 0 0 1-.79-1.44v-4c0-.23.14-.49.32-.49a.57.57 0 0 1 .25.07l15 8.7a1.78 1.78 0 0 1 .67 1.44v4c-.01.19.02.46-.15.46z"/><path class="cls-35" d="M27.15 821.32h.11L42.43 830a1.64 1.64 0 0 1 .71 1.2v4c0 .08-.06.14-.07.18l-15.29-8.7a1.77 1.77 0 0 1-.83-1.2v-4c0-.08.23-.14.24-.18m.23-.6c-.31 0-.46.29-.46.78v4a2.06 2.06 0 0 0 .81 1.69l15 8.7a1.56 1.56 0 0 0 .55.11.78.78 0 0 0 .73-.78v-4a2.34 2.34 0 0 0-1.1-1.69l-15.14-8.7a1 1 0 0 0-.42-.11z"/><path class="cls-34" d="M62 846.72c-.06 0-.06 0-.14-.07L46.67 838a1.91 1.91 0 0 1-.82-1.44v-4c0-.23.18-.49.36-.49a.66.66 0 0 1 .27.07l15 8.7a1.76 1.76 0 0 1 .64 1.44v4c-.05.17.02.44-.12.44z"/><path class="cls-35" d="M46.57 832.3h-.09l15 8.7a1.54 1.54 0 0 1 .56 1.2v4a.61.61 0 0 1 0 .18l-14.87-8.7c-.28-.16-.41-.71-.41-1.2v-4c0-.08-.18-.14-.17-.18m-.22-.6c-.31 0-.51.29-.51.78v4a2.1 2.1 0 0 0 .86 1.69l15.05 8.7a1.4 1.4 0 0 0 .52.11.75.75 0 0 0 .7-.78v-4a2.29 2.29 0 0 0-1.06-1.69l-15.14-8.7a1 1 0 0 0-.42-.11z"/><path class="cls-34" d="M80.93 857.7c-.06 0 0 0-.12-.07l-15.18-8.7a1.94 1.94 0 0 1-.86-1.44v-4a.52.52 0 0 1 .41-.49.74.74 0 0 1 .29.07l14.93 8.7a1.74 1.74 0 0 1 .6 1.44v4c0 .22.11.49-.07.49z"/><path class="cls-35" d="M65.55 843.28h-.07l15 8.7a1.52 1.52 0 0 1 .53 1.2v4a1.53 1.53 0 0 1 0 .18l-14.91-8.7a1.49 1.49 0 0 1-.44-1.2v-4c0-.08-.14-.14-.13-.18m-.22-.6c-.31 0-.55.29-.55.78v4a2.13 2.13 0 0 0 .9 1.69l15.07 8.7a1.25 1.25 0 0 0 .49.11.73.73 0 0 0 .67-.78v-4a2.24 2.24 0 0 0-1-1.69l-15.14-8.7a1 1 0 0 0-.42-.11z"/><path class="cls-85" d="M18.68 930.12l.94-11c.32-3.9.72-7.79.89-11.69l.25-11.69-.05-5.85-.11-5.85a5.63 5.63 0 1 0-11.25 0v5.84l.06 5.84.19 11.69c0 1.95.25 3.9.36 5.84l.42 5.84.83 11.69a3.71 3.71 0 0 0 1.47 2.7l.19.68 7 9.2 1.6-2.93c-2.47-3.04-2.78-7.9-2.79-10.31z"/><path id="_Path_4" data-name="&amp;lt;Path&amp;gt;" class="cls-86" d="M11.17 928.73s-3.85 3.27-2.88 6.35l2.31 13.07 1.54-.77-.38-6.73s-.24-.36 2.31 4.42c1.45 2.73 5.68 4.86 11.53-3.21a2.26 2.26 0 0 0 .18-2.45c-.48-.82-1.53-1.3-3.83.46-.92.71-2.61 3.59-4.61-.58-.02.01-2.34-7.48-6.17-10.56z"/><path class="cls-87" d="M34.93 947l-1.6 2.93-7-9.2-.83-3.07.22-.08a3.7 3.7 0 0 1-1-2.2L23 912q-.23-2.92-.25-5.84v-5.84c0-3.9.07-7.79.26-11.68a5.73 5.73 0 0 1 11.45 0c.16 3.9.21 7.8.19 11.7 0 1.95 0 3.9-.08 5.85s-.12 3.9-.29 5.85l-.49 5.84-.53 5.85-1 11.59c-.16.97-.46 7.82 2.67 11.68z"/><path id="_Path_5" data-name="&amp;lt;Path&amp;gt;" class="cls-88" d="M24.76 935.31s-3.84 3.27-2.88 6.34l2.31 13.07 1.54-.77-.38-6.73s-.24-.36 2.31 4.42c1.45 2.73 5.68 4.86 11.53-3.21a2.26 2.26 0 0 0 .18-2.45c-.48-.82-1.53-1.3-3.83.46-.92.71-2.61 3.59-4.61-.58-.02.02-2.32-7.47-6.17-10.55z"/><path id="_Path_6" data-name="&amp;lt;Path&amp;gt;" class="cls-89" d="M36.34 885.46c.74-5.28 2.31-18.31-1.88-22.78a35.29 35.29 0 0 1-17.08-5.15q-1.59-1-3.1-2.07l-4.5-3.24a1.05 1.05 0 0 0-1.28.44 21.63 21.63 0 0 0-1.68 18.26c1.48 4.46 2.19 6.47 1.5 18.62a52.61 52.61 0 0 0 .4 7.08 2.48 2.48 0 0 0 .69 1.27c1.41 1.41 6 4.58 12.08 6.78 7 1.88 15.39 6.18 14.65-6-.07-1.09.17-12.13.2-13.21z"/><path class="cls-90" d="M14.58 900a2.6 2.6 0 0 1-.72-1.33 55.19 55.19 0 0 1-.42-7.43c.72-12.74 0-14.85-1.58-19.53a23 23 0 0 1 .8-17.38l-2.88-2.08a1.05 1.05 0 0 0-1.28.44 21.63 21.63 0 0 0-1.68 18.26c1.48 4.46 2.19 6.47 1.5 18.62a52.61 52.61 0 0 0 .4 7.08 2.48 2.48 0 0 0 .69 1.27c1.41 1.41 6 4.58 12.08 6.78l.57.16a32.89 32.89 0 0 1-7.48-4.86z"/><g class="cls-91"><path class="cls-92" transform="rotate(-4.21 31.784 906.74)" d="M30.15 904.3h3v2.9h-3z"/><path class="cls-93" d="M32.16 906h.04zM31.27 905.48h.05zM31.08 905.26h-.05zM32.07 904.31zM30.1 905zM31.39 905.49zM31.93 905.39h-.06.06zM32.65 904.76zM31.41 904.43zM31.32 905.26h-.06a.06.06 0 0 1 .05 0zm-.07 0zM31.13 904.82zM31.89 904.82zM30.88 905.31h.05zM30.45 905.46zM30.32 905.88zM31.54 905.88H31.56zM32.22 906.31zM31.71 906.21zM31.57 906.07zM32.07 906.73zM31.75 905.8h0zM31.75 905.32zM32.07 905.35h.07zM31.49 905.32h.06zM33.11 905.39s0-.01 0 0zM31.47 905.55zM31.89 905.5h0zM30.65 904.6zM32.12 904.95h0zM31.09 904.34zM31.79 905a.05.05 0 0 0 0 .05h.07zM31.18 905zM31.57 905h-.07zM32.62 905.08zM31.33 905zM31.56 905.18h.06zM32.23 904.68zM31.83 905.14h-.06.06zM32.27 905.08zM31.93 905H31.95zM32.87 904.34zM32.16 905.23h.06zM31.47 904.87zM31.52 904.63zM31.75 904.87h-.07zM32 904.88zM32.24 904.92zM32.13 905.56H32h.13zM31.29 905.69h.05a.05.05 0 0 0-.05 0zM30.85 906.08zM32.34 905.29zM32.32 905.5zM31.54 906.72zM32.72 905.48zM31.71 905.57zM32.41 905.35zM31.69 905.43h.09zM32.27 905.32zM31.07 905.51zM30.66 905zM31.05 905.54v-.02l-.01-.01h-.03l-.01.01v.03h.01l.01.01h.01l.01-.01.01-.01zM32.11 905.42h.06v-.07h-.05zM31.53 905.47zM32.69 905.93zM31.14 905.92zM32.36 906.16zM31.43 906.25h-.05zM31.89 906.11zM32 906.16zM31.63 906.32zM32 905.91zM32.31 905.89zM32.42 904.38l-.01-.01h-.01v.01l.01.01.01-.01zM31.24 906.39zM32.23 906zM31.22 907zM32.5 907.08zM32.08 906zM31.53 906.4zM31.7 906.38zM31.43 905.92h-.06zM31.91 906h-.07zM31.11 906.18zM31 906zM31 905.71zM31.89 905.71zM31.67 907.19zM31 906.47zM31.3 906.13zM30.58 906.22v-.01h-.01l-.01.01.01.01h.01v-.01zM31.84 906.51zM31.63 906.12h0zM32.57 906.7zM31.2 905.8zM32.86 906.29l.01.01h.01v-.02h-.01l-.01.01zM31.69 905.72h-.06.06zM32.37 905.75zM30.59 906.78l.01.01v.01l.01-.01v-.02h-.01l-.01.01zM31.9 904.43zM30.76 905.71s0 .01 0 0zM31.56 905.75h-.06z"/></g><path id="_Path_7" data-name="&amp;lt;Path&amp;gt;" class="cls-94" d="M20.11 825.09l-3.18-.65c-1.23-.25-2-1.8-1.64-3.47l1.08-5.6c.33-1.68 1.6-2.85 2.84-2.61l7.58 1.5-1.11 5.74c-.68 3.27-3.13 5.57-5.57 5.09z"/><path id="_Rectangle_" data-name="&amp;lt;Rectangle&amp;gt;" class="cls-95" d="M18.47 800.22h13.41v13.33a3.62 3.62 0 0 1-3.62 3.62h-6a3.79 3.79 0 0 1-3.79-3.79v-13.16z" transform="rotate(2.25 25.081 810.26)"/><path id="_Path_8" data-name="&amp;lt;Path&amp;gt;" class="cls-96" d="M14.5 813.31c1.48 1.18 5.26 3.51 7.58 0 .54-.81.16-2.46 2.45-3 1.36-.34 3.33-.24 4.73-3 .39-.79 1.55-1.54 2.34-2.63 2.35-3.23 3.31-11.93-9.21-13.06a13.37 13.37 0 0 0-5.11.74 13.45 13.45 0 0 1-3.35.14c-2.49-.15-8.15 2.4-4.79 8.76-.01-.04-.04 7.74 5.36 12.05z"/><path id="_Path_9" data-name="&amp;lt;Path&amp;gt;" class="cls-97" d="M35.67 860.82c-2.17-8.77-3.83-18.76-1.75-27.58.78-3.29-1-6.42-5.24-8.37 0 0-14.1-8.37-17.12-7.27-7 2.55-6.21 10-5.47 12.45 3.61 11.89 3.25 17.23 1.83 20.3a5.24 5.24 0 0 0 .76 5.65c2.34 2.57 9.89 5.31 9.89 5.31 4.65 2.09 10.07 4.6 10.07 4.6l.34.18c3 1.39 7.87-.6 7.08-3.8z"/><path class="cls-98" d="M27.31 805.55a.93.93 0 0 1-.78-1c.18-3.82-.82-7.2-3.21-9.28a26.85 26.85 0 0 0-5.5-3.14c-.57-.16.5-.44 1.1-.59s5.17.76 7.82 5a15 15 0 0 1 1.65 8.12.93.93 0 0 1-1 .89z"/><ellipse class="cls-99" cx="27.66" cy="808.43" rx="4.32" ry="3.42" transform="rotate(-80.66 27.654 808.424)"/><path class="cls-100" d="M30.52 815.14c-2.17-.36-2.51-3.55-2.53-3.68a.62.62 0 0 1 1.24-.13s.28 2.38 1.49 2.58a.68.68 0 0 0 .8-.33.63.63 0 0 1 .82-.3.62.62 0 0 1 .32.8 1.93 1.93 0 0 1-2.14 1.06z"/><ellipse class="cls-101" cx="28.29" cy="808.92" rx="4.32" ry="3.42" transform="rotate(-80.66 28.286 808.91)"/><path class="cls-102" d="M28.17 811.67h-.32a2 2 0 0 1-1.44-1.07 3.25 3.25 0 0 1 .63-3.82 2 2 0 0 1 1.71-.56 2.54 2.54 0 0 1 1.75 3.09 2.65 2.65 0 0 1-2.33 2.36zm.26-5.08a1.69 1.69 0 0 0-1.11.47 2.84 2.84 0 0 0-.54 3.31 1.62 1.62 0 0 0 1.14.87 2.14 2.14 0 0 0 2.17-2 2.14 2.14 0 0 0-1.41-2.61z"/><path class="cls-103" d="M36.05 862.34l-.38-1.52c-2.17-8.77-3.83-18.76-1.75-27.58A6.34 6.34 0 0 0 32 827.1a5.27 5.27 0 0 0-6.85 5.3l.4 8.1c0 .31.49.65 1.26.91h.12l1.39 14.46a4.25 4.25 0 0 0 1.84 3.22l5.84 4.67a2.66 2.66 0 0 0 .05-1.42z"/><path class="cls-104" d="M52.51 871.5a3.83 3.83 0 0 0 3.51-2c1.68-3 .47-5.64-3.59-8l-.14-.08a6.19 6.19 0 0 0-1.49-.59 6.05 6.05 0 0 0-1.56-.21h-.43l-10.2-7.34-3.92-22.42a4.39 4.39 0 0 0-8.69 1.42L30.41 856a4.25 4.25 0 0 0 2.11 3l13.23 8.7a8.11 8.11 0 0 0 2.9 2.69 9.35 9.35 0 0 0 2 .79 7.07 7.07 0 0 0 1.86.32z"/><path class="cls-105" d="M27.66 841.65c2.49.6 7.18 0 8.75-1.39.46-.42.42-.73.4-.83l-1.1-8a5.33 5.33 0 0 0-4-4.44 5.29 5.29 0 0 0-6.48 5.86l1.1 8c0 .31.54.6 1.34.8z"/><path class="cls-106 cls-107" d="M217.34 840.14c0 6.73 9.68 15 21.74 15 5.14 0 5-8.29 8.73-9.95 5-2.23 13.19-1.19 13.19-5.06 0-6.73-9.77-12.19-21.83-12.19-5 0-5.31 5-9 6.53-5.22 2.23-12.83 1.71-12.83 5.67z"/><path class="cls-108" d="M227.43 837a29.44 29.44 0 0 0 0 5.8c.31 2.32 3.88 9.44 8.68 11.86a4.31 4.31 0 0 0 3 .41c1.26-.32 2.38-1.13 2.38-3.43a7.47 7.47 0 0 0-.33-2.11c-1.23-4.19-4.68-8.56-4.68-9.11s-.26-3.41-.26-3.41z"/><path class="cls-109" d="M227.8 837a25.12 25.12 0 0 0 0 5.41c.34 2.55 4.5 10.94 10.2 12.21 1.58-.07 3.1-.38 3.23-3a7.57 7.57 0 0 0-.36-2.65c-1.39-4.38-4.05-8.42-4.05-9s-.26-3-.26-3z"/><path class="cls-108" d="M241.44 827.48s-1.23 5.43-.13 6.87 12.07 8.83 17.43 7.64c3.32-1 2.44-4.66 2.17-5.27-1.07-2.37-12.71-9.09-12.71-9.09z"/><path class="cls-110" d="M241.72 826s-1.31 5.87-.2 7.32 12.07 8.83 17.43 7.64c3.32-1 2.15-4.4 1.53-5.19-.86-1.1-12.07-9.17-12.07-9.17z"/><path class="cls-111" d="M228.79 839.89s3 3.46 5.43 2.14a4.05 4.05 0 0 0 2-4.09zM242.93 828.89s3.35 4 5.81 2.68a4.05 4.05 0 0 0 2-4.09z"/><path class="cls-112" d="M226.95 759.91s-.06 9.53.57 20 3.57 21.58 2.75 27.52-3.74 29.52-2.7 31.46 6.7 5.22 8.84-.42c1.43-7.6 6.24-35 5.71-41.88s-.52-19-.52-19l5.51-2.13-1.17 28.29s-4.86 22.16-4.17 23.46 3.44 5.53 7.56 3.26a3.26 3.26 0 0 0 1.58-2.08c2.32-9.45 8.12-37.91 8.07-39.79s-.24-33.83-.28-35.47-31.75 6.78-31.75 6.78z"/><g class="cls-113"><path class="cls-114" d="M228.11 838c-1-1.94 4.75-26.57 5.57-32.51s-2.12-17-2.75-27.52c-.5-8.4-.56-16.18-.57-18.95l-3.41.89s-.06 9.53.57 20 3.57 21.58 2.75 27.52-3.74 29.52-2.7 31.46 5.77 4.71 8.28.7a6.09 6.09 0 0 1-7.74-1.59z"/><path class="cls-115" d="M245.93 803.73s-1.77 8.07-3 14.76c-.37 2.35-.75 4.66-1.12 6.83a5.15 5.15 0 0 0 0 1.87c.63 1.18 3.44 5.53 7.56 3.26a3.23 3.23 0 0 0 1.29-1.33c-4 2.54-7.16-1.4-7.67-2.36-.69-1.29 6.4-25 6.4-25s2.38-13.71-2.24-26.32"/></g><path class="cls-116" d="M275.69 761.5a3.46 3.46 0 0 1-2.41-1L262 749.68a3.49 3.49 0 0 1-1-2.05l-3.12-23.86a3.48 3.48 0 0 1 6.9-.9l3 22.65 10.37 10a3.48 3.48 0 0 1-2.41 6z"/><path class="cls-117" d="M257.73 731a7.23 7.23 0 0 0 8.19-1.44 1.6 1.6 0 0 0 .42-1.39l-1.3-7a5 5 0 0 0-5.56-4.12 4.86 4.86 0 0 0-4 5.63l1.32 7.07a1.6 1.6 0 0 0 .93 1.25z"/><path class="cls-118" d="M252.48 716.9a36.73 36.73 0 0 1 7 .14c2.95.35.69 23.63.37 30.64-.22 5 .28 12.44.11 15.17a2.43 2.43 0 0 1-1.9 2.23c-2.17.48-7.18 2.78-12.58 3.86-7.55 1.5-15.86 1.76-18.23 1.41l-1.3-43-2.31-1.7a14.49 14.49 0 0 1 6.84-4.84c4.41-1.39 22-3.91 22-3.91z"/><path class="cls-119" d="M227.26 770.36a48.73 48.73 0 0 0 8.41-.1l-.21-.7a4.19 4.19 0 0 0-1.27-2l-.09-.08-3.6-12.23-.44-16a7.89 7.89 0 0 0 .7-.4 1.6 1.6 0 0 0 .72-1.26l.44-8.18a5 5 0 0 0-4.49-5.26 4.84 4.84 0 0 0-3.79 1.42l2.31 1.7 1.25 41.3.24.81v.11a4.29 4.29 0 0 0-.18.87z"/><path class="cls-120" d="M229.95 777a4.2 4.2 0 0 1-4.08-3.21l-.46-1.88a4.19 4.19 0 0 1 .11-2.35v-.11l-3.14-12.82a3.55 3.55 0 0 1-.1-.89l.5-26.74a3.48 3.48 0 0 1 6-2.35 3.45 3.45 0 0 1 1 2.48l-.5 26.29 3 12.38.09.08a4.19 4.19 0 0 1 1.18 2l.46 1.88a4.21 4.21 0 0 1-3.08 5.09 4.29 4.29 0 0 1-.98.15z"/><path class="cls-121" d="M222 738.28a7.23 7.23 0 0 0 8.27.82 1.6 1.6 0 0 0 .78-1.22l.82-8.15a5 5 0 0 0-4.24-5.47 4.86 4.86 0 0 0-5.41 4.34l-.83 8.26a1.6 1.6 0 0 0 .61 1.42z"/><path class="cls-122" d="M245.07 720.35a5.31 5.31 0 0 0 3.6-2.22 3.4 3.4 0 0 0 .3-.71c-2.69.41-6.53 1-10.1 1.63.9.95 2.75 2.11 6.2 1.3z"/><path class="cls-123" d="M239 720.47l-.71-9.39 7.31-.35.23 4.88 1.4-.72.45 5.76s-9.76.35-8.68-.18z"/><path class="cls-124" d="M241.55 722.75a10.8 10.8 0 0 0 4-.23 7.4 7.4 0 0 0 5-3.27 5.82 5.82 0 0 0 .74-2.18l-2.35.35a3.4 3.4 0 0 1-.3.71 5.31 5.31 0 0 1-3.6 2.22c-3.45.8-5.3-.36-6.19-1.3l-2.46.44a7 7 0 0 0 5.16 3.26z"/><path class="cls-125" d="M253.67 700.66a18.32 18.32 0 0 1-.52 12.46c-2.76 6.27-6.14 5.76-7.81 5.77s-7.37-3-8.18-6.56-3.17-7.81-2.22-9.43 16.06-8.82 18.73-2.24z"/><path class="cls-126" d="M240.64 708.55a13.44 13.44 0 0 0 1.89-3.27 3.65 3.65 0 0 0 .08-1.72s6.67 1.46 9.83-2a27.56 27.56 0 0 0 1.85 3.56c.23-.1 1.89-1.11 1.43-2s-1.19-.53-1-1.51.43-1.53-.13-2.24-2.08-2.23-2-2.89-.66-.56-1.62-.86-.86-1-1.73-1.78-1.82.71-2.74.3-1.17-1.22-1.88-1.07-.41.81-1.63.81-.82-.5-1.92-.25c-1.32.3-1.08 1.57-1.83 2s-1.87-.15-2 1.37-.91 1.52-1.52 2.18.16.91 0 2-.91 1.07-1.17 2.28-.11 1.12.38 1.88 0 .91.38 2.18 1.2 1.42 1.46 2.44 0 1.83.67 2.28a2.3 2.3 0 0 0 1.35.41l1.19-2.08z"/><path class="cls-127" d="M251.52 695.12c-1.67-1-1.78-1.28-4.13-1-9.68 1.09-10.09 12.07-10.09 12.18l1.86.05a14.75 14.75 0 0 1 1.21-5 8.6 8.6 0 0 1 7.23-5.35 13.68 13.68 0 0 1 4.86.5 13.49 13.49 0 0 0-.94-1.38z"/><path class="cls-128" d="M251.15 694.69c-1.67-1-1.78-1.28-4.13-1-9.68 1.09-10.09 12.07-10.09 12.18l1.86.05a14.75 14.75 0 0 1 1.21-5 8.6 8.6 0 0 1 7.23-5.42 13.55 13.55 0 0 1 4.84.5c.1 0 .23-.15.23-.11s.09.34.1.34c.23.12-1.25-1.54-1.25-1.54z"/><ellipse class="cls-128" cx="237.88" cy="708.38" rx="4.79" ry="3.66" transform="rotate(-89.08 237.887 708.388)"/><path class="cls-129" d="M243.78 717.09a7.52 7.52 0 0 0 .84 0l-.1-.91a6.48 6.48 0 0 1-7.17-5.72l-.91.1a7.4 7.4 0 0 0 7.34 6.57z"/><path class="cls-130" d="M243.78 717.54a8 8 0 0 0 .89-.05.92.92 0 1 0-.2-1.82 6.53 6.53 0 0 1-.86 0 .91.91 0 1 0-.05 1.83z"/><path class="cls-131" d="M246.31 693.4a6.69 6.69 0 0 1 6 2c1.12 1.12 1.49 2.72 1.31 2.85a15 15 0 0 0-2.7-2.6c-1.12-.74-2.71-.62-4.45-.41a8.49 8.49 0 0 0-7.07 5.44 15.12 15.12 0 0 0-1.19 5h-1.81c.04-.18.48-11.16 9.91-12.28z"/><ellipse class="cls-132" cx="237.01" cy="708.13" rx="4.79" ry="3.66" transform="rotate(-88.9 238.934 708.986)"/><path class="cls-133" d="M237 710.82a1.94 1.94 0 0 1-1.7-.76 2.78 2.78 0 0 1-.65-1.89 2.55 2.55 0 0 1 2.42-2.76 2 2 0 0 1 1.7.77 3.28 3.28 0 0 1 .65 2.07 2.89 2.89 0 0 1-.72 1.9 1.94 1.94 0 0 1-1.7.66zm-1.93-2.82a3.29 3.29 0 0 0 .56 1.95 1.78 1.78 0 0 0 1.34.83 1.77 1.77 0 0 0 1.34-.76 3.14 3.14 0 0 0 .62-1.88 3.27 3.27 0 0 0-.56-1.94 1.77 1.77 0 0 0-1.34-.83c-1.03.04-1.94 1.24-1.96 2.63z"/><path class="cls-5" d="M307.2 691.09h2v13.3h-2z"/><path class="cls-134" d="M307.19 693.49h2v29.95h-2z"/><path class="cls-135" d="M367.27 702.23a1.47 1.47 0 0 0-1.32 0c-3.08 1.28-5.85 1.2-8 0l5 2.89c2.1 1.22 4.87 1.3 8 0a1.47 1.47 0 0 1 1.32 0zM353.4 694.33a1.65 1.65 0 0 0-1.66.16l-84.28 48.66a5.19 5.19 0 0 0-2.31 3.65 31.92 31.92 0 0 1-11.81 20.44 5.21 5.21 0 0 0-2 3.81l.12 45.23a1.64 1.64 0 0 0 .68 1.5l5 2.89a1.64 1.64 0 0 1-.68-1.5l-.12-45.23a5.21 5.21 0 0 1 2-3.81 31.92 31.92 0 0 0 11.81-20.44 5.19 5.19 0 0 1 2.31-3.65l84.28-48.66a1.65 1.65 0 0 1 1.66-.16zM266.4 820.71l-5-2.89c2.07 1.2 3.5 3.52 3.94 6.74a1.46 1.46 0 0 0 .65 1.13l5 2.89a1.46 1.46 0 0 1-.65-1.13c-.44-3.22-1.87-5.54-3.94-6.74z"/><path class="cls-136" d="M272.43 746a5.19 5.19 0 0 0-2.31 3.65 31.92 31.92 0 0 1-11.81 20.44 5.21 5.21 0 0 0-2 3.81v45.19a1.48 1.48 0 0 0 2.13 1.54c6.1-2.52 11 .27 11.89 6.78.17 1.22 1.15 1.64 2.32 1l84.28-48.66a5.22 5.22 0 0 0 2.31-3.63 31.91 31.91 0 0 1 11.81-20.46 5.18 5.18 0 0 0 2-3.81l-.12-45.23c0-1.33-.86-2-2-1.5-6.12 2.53-11-.25-11.89-6.76-.17-1.23-1.16-1.65-2.32-1z"/><path class="cls-137" d="M372.08 520.95L439 482.01 77.43 271.56 2.48 316.53l369.6 204.42z"/><path class="cls-138" d="M12.89 5.39c0-4.53 2.76-6.61 6.11-4.65l351 202.67c3.4 2 6.15 7.22 6.15 11.75v25l-.11-.06v274.6c0 4.53-2.75 6.61-6.15 4.65l-26.35-15.22v-.21L19.5 316.8a14.6 14.6 0 0 1-6.61-11.44V30.4z"/><path class="cls-138" d="M374.41 519.39l-11.5 7.69-2.22-15.53 13.72 7.84zM3.23 8.29L14.81.55l-.34 12.46L3.23 8.29z"/><path class="cls-139" d="M364.81 247.79L1.48 38V13c0-4.53 2.75-6.61 6.15-4.65L358.67 211c3.4 2 6.15 7.22 6.15 11.75z"/><path class="cls-140" d="M18.19 31.06c0 2.11-1.48 3-3.3 1.91a7.3 7.3 0 0 1-3.3-5.72c0-2.11 1.48-3 3.3-1.91a7.3 7.3 0 0 1 3.3 5.72zM30.52 38.18c0 2.11-1.48 3-3.3 1.91a7.3 7.3 0 0 1-3.3-5.72c0-2.11 1.48-3 3.3-1.91a7.3 7.3 0 0 1 3.3 5.72zM42.85 45.3c0 2.11-1.48 3-3.3 1.91a7.3 7.3 0 0 1-3.3-5.72c0-2.11 1.48-3 3.3-1.91a7.3 7.3 0 0 1 3.3 5.72zM289.07 195.85L54.4 60.36a7.36 7.36 0 0 1-3.07-5.87V45.9c0-2.26 1.38-3.3 3.07-2.32l234.67 135.49a7.36 7.36 0 0 1 3.07 5.87v8.58c.01 2.27-1.37 3.31-3.07 2.33z"/><path class="cls-31" d="M7.74 324.44l26.35 15.22V56.52L1.59 37.75v274.94c0 4.53 2.76 9.79 6.15 11.75z"/><path class="cls-141" d="M34.09 56.52v282.92l324.12 187.12c3.65 2.11 6.61.4 6.61-3.81V247.46z"/><path class="cls-12" d="M342.54 328.8L56.64 163.74c-3.93-2.27-7.12-8.36-7.12-13.61V93.06c0-5.25 3.19-7.66 7.12-5.38l285.9 165.06c3.93 2.27 7.12 8.36 7.12 13.61v57.07c0 5.24-3.19 7.65-7.12 5.38z"/><path class="cls-142" d="M158.1 166.19a2.92 2.92 0 0 1-1.44-.44l-24.38-14.08c-2.22-1.28-4-4.75-4-7.73 0-2 .81-3.23 2.06-3.23a2.92 2.92 0 0 1 1.44.44l24.38 14.08c2.22 1.28 4 4.75 4 7.73.01 1.96-.8 3.23-2.06 3.23z"/><path class="cls-143" d="M130.33 141.22a2.46 2.46 0 0 1 1.18.38l24.38 14.08c2 1.18 3.76 4.51 3.76 7.28 0 1.25-.41 2.72-1.55 2.72a2.45 2.45 0 0 1-1.18-.38l-24.38-14.08c-2-1.18-3.76-4.51-3.76-7.28 0-1.25.41-2.72 1.55-2.72m0-1c-1.52 0-2.58 1.4-2.58 3.75 0 3.15 1.92 6.81 4.28 8.18l24.38 14.08a3.43 3.43 0 0 0 1.7.51c1.52 0 2.58-1.4 2.58-3.75 0-3.15-1.92-6.81-4.28-8.18L132 140.71a3.43 3.43 0 0 0-1.7-.51z"/><path class="cls-144" d="M71.16 131.71l-6.22-3.59a7.34 7.34 0 0 1-3.07-5.86v-6.09c0-2.26 1.37-3.29 3.07-2.32l6.22 3.59a7.34 7.34 0 0 1 3.07 5.86v6.09c-.01 2.26-1.38 3.3-3.07 2.32z"/><path class="cls-145" d="M289.56 288.71v-57.05l2.06 1.19v57.05l-2.06-1.19z"/><path class="cls-146" d="M276 259.47l-1.65-1c-3-1.71-5.35-6.28-5.35-10.22 0-3.94 2.39-5.75 5.35-4l1.65 1c3 1.71 5.35 6.28 5.35 10.22-.02 3.9-2.42 5.71-5.35 4z"/><g class="cls-147"><path class="cls-33" d="M316.47 268.59l-12.9-7.45a4.27 4.27 0 0 1-1.78-3.41c0-1.31.8-1.92 1.78-1.35l12.9 7.45a4.27 4.27 0 0 1 1.78 3.41c.01 1.32-.79 1.92-1.78 1.35zM332.94 287.61l-29.37-17a4.27 4.27 0 0 1-1.78-3.41c0-1.31.8-1.92 1.78-1.35l29.37 17a4.27 4.27 0 0 1 1.78 3.41c0 1.31-.79 1.91-1.78 1.35zM324.71 292.36l-21.14-12.2a4.27 4.27 0 0 1-1.78-3.41c0-1.31.8-1.92 1.78-1.35l21.14 12.2a4.27 4.27 0 0 1 1.78 3.41c0 1.32-.8 1.92-1.78 1.35z"/></g><path class="cls-12" d="M342.54 414.37L56.64 249.31c-3.93-2.27-7.12-8.36-7.12-13.61v-57.07c0-5.25 3.19-7.66 7.12-5.38l285.9 165.06c3.93 2.27 7.12 8.36 7.12 13.61V409c0 5.23-3.19 7.64-7.12 5.37z"/><path class="cls-148" d="M158.1 251.76a2.92 2.92 0 0 1-1.44-.44l-24.38-14.08c-2.22-1.28-4-4.75-4-7.73 0-2 .81-3.23 2.06-3.23a2.92 2.92 0 0 1 1.44.44l24.38 14.08c2.22 1.28 4 4.75 4 7.73.01 1.96-.8 3.23-2.06 3.23z"/><path class="cls-149" d="M130.33 226.79a2.46 2.46 0 0 1 1.18.38l24.38 14.08c2 1.18 3.76 4.51 3.76 7.28 0 1.25-.41 2.72-1.55 2.72a2.46 2.46 0 0 1-1.18-.38l-24.38-14.08c-2-1.18-3.76-4.51-3.76-7.28 0-1.25.41-2.72 1.55-2.72m0-1c-1.52 0-2.58 1.4-2.58 3.75 0 3.15 1.92 6.81 4.28 8.17l24.38 14.08a3.43 3.43 0 0 0 1.7.51c1.52 0 2.58-1.4 2.58-3.75 0-3.15-1.92-6.81-4.28-8.18L132 226.28a3.43 3.43 0 0 0-1.7-.51z"/><path class="cls-144" d="M71.16 217.28l-6.22-3.59a7.34 7.34 0 0 1-3.07-5.86v-6.09c0-2.26 1.37-3.29 3.07-2.32l6.22 3.58a7.34 7.34 0 0 1 3.07 5.86V215c-.01 2.22-1.38 3.26-3.07 2.28z"/><path class="cls-145" d="M289.56 374.28v-57.05l2.06 1.19v57.05l-2.06-1.19z"/><path class="cls-146" d="M276 345l-1.65-1c-3-1.71-5.35-6.28-5.35-10.22 0-3.94 2.39-5.75 5.35-4l1.65 1c3 1.71 5.35 6.28 5.35 10.22-.02 3.94-2.42 5.75-5.35 4z"/><g class="cls-147"><path class="cls-33" d="M316.47 354.16l-12.9-7.45a4.27 4.27 0 0 1-1.78-3.41c0-1.31.8-1.92 1.78-1.35l12.9 7.45a4.27 4.27 0 0 1 1.78 3.41c.01 1.32-.79 1.92-1.78 1.35zM332.94 373.18l-29.37-17a4.27 4.27 0 0 1-1.78-3.41c0-1.31.8-1.92 1.78-1.35l29.37 17a4.27 4.27 0 0 1 1.78 3.41c0 1.31-.79 1.92-1.78 1.35zM324.71 377.93l-21.14-12.2a4.27 4.27 0 0 1-1.78-3.41c0-1.31.8-1.92 1.78-1.35l21.14 12.2a4.27 4.27 0 0 1 1.78 3.41c0 1.32-.8 1.92-1.78 1.35z"/></g><path class="cls-12" d="M342.54 499.95L56.64 334.88c-3.93-2.27-7.12-8.36-7.12-13.61V264.2c0-5.25 3.19-7.66 7.12-5.38l285.9 165.06c3.93 2.27 7.12 8.36 7.12 13.61v57.07c0 5.25-3.19 7.66-7.12 5.39z"/><path class="cls-150" d="M158.1 337.33a2.92 2.92 0 0 1-1.44-.44l-24.38-14.08c-2.22-1.28-4-4.75-4-7.73 0-2 .81-3.23 2.06-3.23a2.92 2.92 0 0 1 1.44.44l24.38 14.08c2.22 1.28 4 4.75 4 7.73.01 1.96-.8 3.23-2.06 3.23z"/><path class="cls-151" d="M130.33 312.37a2.46 2.46 0 0 1 1.18.38l24.38 14.08c2 1.18 3.76 4.51 3.76 7.28 0 1.25-.41 2.72-1.55 2.72a2.46 2.46 0 0 1-1.18-.38l-24.38-14.08c-2-1.18-3.76-4.51-3.76-7.28 0-1.25.41-2.72 1.55-2.72m0-1c-1.52 0-2.58 1.4-2.58 3.75 0 3.15 1.92 6.81 4.28 8.18l24.38 14.08a3.43 3.43 0 0 0 1.7.51c1.52 0 2.58-1.4 2.58-3.75 0-3.15-1.92-6.81-4.28-8.18L132 311.85a3.43 3.43 0 0 0-1.7-.51z"/><path class="cls-13" d="M225.11 220.36l-94.76-54.71a6.24 6.24 0 0 1-2.61-5c0-1.92 1.17-2.8 2.61-2l94.76 54.71a6.24 6.24 0 0 1 2.61 5c0 1.95-1.17 2.83-2.61 2z"/><path class="cls-152" d="M197.64 218.76l-68.11-39.32a4.27 4.27 0 0 1-1.78-3.41c0-1.31.8-1.92 1.78-1.35L197.64 214a4.27 4.27 0 0 1 1.78 3.41c0 1.31-.8 1.92-1.78 1.35zM178.85 217.42l-49.32-28.47a4.27 4.27 0 0 1-1.78-3.41c0-1.31.8-1.92 1.78-1.35l49.32 28.47a4.27 4.27 0 0 1 1.78 3.41c0 1.31-.8 1.93-1.78 1.35z"/><path class="cls-13" d="M192.17 286.91l-61.82-35.69a6.24 6.24 0 0 1-2.61-5c0-1.92 1.17-2.8 2.61-2L192.17 280a6.24 6.24 0 0 1 2.61 5c0 1.86-1.17 2.74-2.61 1.91z"/><path class="cls-152" d="M230.57 323.35L129.53 265a4.27 4.27 0 0 1-1.78-3.41c0-1.31.8-1.92 1.78-1.35l101 58.34a4.27 4.27 0 0 1 1.78 3.41c.05 1.32-.75 1.92-1.74 1.36zM197.64 313.84l-68.11-39.32a4.27 4.27 0 0 1-1.78-3.41c0-1.31.8-1.92 1.78-1.35l68.11 39.32a4.27 4.27 0 0 1 1.78 3.41c0 1.31-.8 1.92-1.78 1.35z"/><path class="cls-13" d="M175.7 363l-45.35-26.18a6.24 6.24 0 0 1-2.61-5c0-1.92 1.17-2.8 2.61-2L175.7 356a6.24 6.24 0 0 1 2.61 5c0 1.93-1.17 2.81-2.61 2z"/><path class="cls-152" d="M197.64 389.9l-68.11-39.32a4.27 4.27 0 0 1-1.78-3.41c0-1.31.8-1.92 1.78-1.35l68.11 39.32a4.27 4.27 0 0 1 1.78 3.41c0 1.32-.8 1.92-1.78 1.35zM178.85 388.56l-49.32-28.47a4.27 4.27 0 0 1-1.78-3.41c0-1.31.8-1.92 1.78-1.35l49.32 28.47a4.27 4.27 0 0 1 1.78 3.41c0 1.32-.8 1.92-1.78 1.35z"/><path class="cls-144" d="M71.16 302.85l-6.22-3.59a7.34 7.34 0 0 1-3.07-5.86v-6.09c0-2.26 1.37-3.29 3.07-2.32l6.22 3.59a7.34 7.34 0 0 1 3.07 5.86v6.09c-.01 2.26-1.38 3.3-3.07 2.32z"/><path class="cls-145" d="M289.56 459.85V402.8l2.06 1.19v57.05l-2.06-1.19z"/><path class="cls-146" d="M276 430.62l-1.65-1c-3-1.71-5.35-6.28-5.35-10.22 0-3.94 2.39-5.75 5.35-4l1.65 1c3 1.71 5.35 6.28 5.35 10.22-.02 3.89-2.42 5.7-5.35 4z"/><g class="cls-147"><path class="cls-33" d="M316.47 439.73l-12.9-7.45a4.27 4.27 0 0 1-1.78-3.41c0-1.31.8-1.92 1.78-1.35l12.9 7.45a4.27 4.27 0 0 1 1.78 3.41c.01 1.32-.79 1.92-1.78 1.35zM332.94 458.75l-29.37-17a4.27 4.27 0 0 1-1.78-3.41c0-1.31.8-1.92 1.78-1.35l29.37 17a4.27 4.27 0 0 1 1.78 3.41c0 1.31-.79 1.92-1.78 1.35zM324.71 463.5l-21.14-12.2a4.27 4.27 0 0 1-1.78-3.41c0-1.31.8-1.92 1.78-1.35l21.14 12.2a4.27 4.27 0 0 1 1.78 3.41c0 1.32-.8 1.92-1.78 1.35z"/></g><path class="cls-153" d="M26.51 112.81c0 5.53-3.88 7.77-8.67 5s-8.67-9.48-8.67-15 3.88-7.77 8.67-5 8.67 9.47 8.67 15zM26.51 145.42c0 5.53-3.88 7.77-8.67 5s-8.67-9.48-8.67-15 3.88-7.77 8.67-5 8.67 9.47 8.67 15zM26.51 177.94c0 5.53-3.88 7.77-8.67 5s-8.67-9.48-8.67-15 3.88-7.77 8.67-5 8.67 9.48 8.67 15zM26.51 210.47c0 5.53-3.88 7.77-8.67 5s-8.67-9.48-8.67-15 3.88-7.77 8.67-5 8.67 9.47 8.67 15zM26.51 243c0 5.53-3.88 7.77-8.67 5s-8.67-9.48-8.67-15 3.88-7.77 8.67-5 8.67 9.51 8.67 15z"/><path class="cls-154" d="M17.84 78.41C11.86 75 7 66.55 7 59.64s4.85-9.71 10.83-6.25L26 58.08a6 6 0 0 1 2.71 4.69v9.38c-.03 6.91-4.89 9.71-10.87 6.26z"/><path class="cls-12" d="M17.84 58.94c-2.77-1.6-5-.33-5 2.88v3.83a3.69 3.69 0 0 0 1.67 2.89l1.39.8v-4.48L14 63.75v-1.28c0-2.47 1.72-3.47 3.87-2.24a8.56 8.56 0 0 1 3.88 6.72v1.28l-1.93-1.11v4.48l1.3.75v.1c0 1-.67 1.34-1.5.86l-1.5-.86c-.13-.08-.24 0-.24.14a.53.53 0 0 0 .24.41l1.45.84c1.11.64 2 .13 2-1.15v-.13c.72.19 1.24-.26 1.24-1.14v-3.86a10.9 10.9 0 0 0-4.97-8.62z"/><path id="_Clipping_Path_8" data-name="&amp;lt;Clipping Path&amp;gt;" class="cls-1" d="M117.45 236.88c0 10.5-7.37 14.76-16.47 9.51s-16.47-18-16.47-28.52 7.37-14.76 16.47-9.51 16.47 18.02 16.47 28.52z"/><g class="cls-155"><path class="cls-156" d="M102.64 240.29A2 2 0 0 1 101 240a5.78 5.78 0 0 1-2.62-4.53v-9.6c0-1.67 1.16-2.35 2.61-1.52a5.78 5.78 0 0 1 2.62 4.53v9.6a1.73 1.73 0 0 1-.97 1.81z"/><path class="cls-157" d="M101.21 238.44l-9.27-5.35c-1.23-.71-2.5-.21-2.95 1.83l-1.59 6.73c0 2 1 4.14 2.23 4.85l22.71 13.11c1.23.71 2.23-.31 2.23-2.28l-2.1-8.83c-.6-2.77-1-4.14-2.23-4.85z"/><path class="cls-158" d="M105.12 241.42H105c-4.09.59-8-4.66-8.17-4.88-.58-.79-.74-1.8-.34-2.25s1.19-.17 1.77.62c.13.17 2.73 3.6 5.38 3.22.6-.09 1.39.58 1.76 1.49s.26 1.67-.28 1.8z"/><path class="cls-159" d="M92.86 214.23s0 9.81 2.71 12.16 10.87 6.84 11.45 6.48 3.56-9.74 1.2-11.66c-1.52-1.21-15.36-6.98-15.36-6.98z"/><path class="cls-160" d="M96.09 223.72c0 .93-.66 1.31-1.46.85a3.24 3.24 0 0 1-1.47-2.57c0-.93.66-1.31 1.46-.85a3.24 3.24 0 0 1 1.47 2.57z"/><path class="cls-161" d="M108.61 230.95c0 .93-.66 1.31-1.46.85a3.24 3.24 0 0 1-1.46-2.54c0-.93.66-1.31 1.46-.85a3.24 3.24 0 0 1 1.46 2.54z"/><path class="cls-162" d="M93.69 213.59L95 226a14.68 14.68 0 0 0 1.69 5.41 9.42 9.42 0 0 0 4.3 4.12c2 1.14 3.2 1.38 4.28.75a4.31 4.31 0 0 0 1.8-3.42l1.2-10.9z"/><path class="cls-163" d="M107.54 224a6.38 6.38 0 0 0-.35 2.43 17.66 17.66 0 0 1 .19 3.07s1.94-6.83.83-7.57-.67 2.07-.67 2.07z"/><path class="cls-164" d="M92.88 214.84s9.51 9.22 13.24 9.69c2.26.29 3-2.72 2.53-4.78-.94-2.42-16.7-15.32-15.77-4.91z"/><path class="cls-165" d="M95.57 217.35s-.27.57-.59 1.32a17.45 17.45 0 0 0-.42 3.47l-.86-6.84.94-.33z"/></g><path id="_Clipping_Path_9" data-name="&amp;lt;Clipping Path&amp;gt;" class="cls-2" d="M117.45 151.31c0 10.5-7.37 14.76-16.47 9.51s-16.47-18-16.47-28.52 7.37-14.76 16.47-9.51 16.47 18.02 16.47 28.52z"/><g class="cls-166"><path class="cls-167" d="M102.64 154.72a2 2 0 0 1-1.64-.27 5.78 5.78 0 0 1-2.62-4.53v-9.6c0-1.67 1.16-2.35 2.61-1.52a5.78 5.78 0 0 1 2.62 4.53v9.6a1.73 1.73 0 0 1-.97 1.79z"/><path class="cls-168" d="M101.21 152.87l-9.27-5.35c-1.23-.71-2.5-.21-2.95 1.83l-1.59 6.73c0 2 1 4.14 2.23 4.85L112.34 174c1.23.71 2.23-.31 2.23-2.28l-2.1-8.83c-.6-2.77-1-4.14-2.23-4.85z"/><path class="cls-169" d="M105.12 155.85H105c-4.09.59-8-4.66-8.17-4.88-.58-.79-.74-1.8-.34-2.25s1.19-.17 1.77.62c.13.17 2.73 3.6 5.38 3.22.6-.09 1.39.58 1.76 1.49s.26 1.66-.28 1.8z"/><path class="cls-170" d="M92.86 128.66s0 9.81 2.71 12.16 10.87 6.84 11.45 6.48 3.56-9.74 1.2-11.66c-1.52-1.23-15.36-6.98-15.36-6.98z"/><path class="cls-171" d="M96.09 138.15c0 .93-.66 1.31-1.46.85a3.24 3.24 0 0 1-1.46-2.54c0-.93.66-1.31 1.46-.85a3.24 3.24 0 0 1 1.46 2.54z"/><path class="cls-172" d="M108.61 145.38c0 .93-.66 1.31-1.46.85a3.24 3.24 0 0 1-1.46-2.54c0-.93.66-1.31 1.46-.85a3.24 3.24 0 0 1 1.46 2.54z"/><path class="cls-173" d="M93.69 128L95 140.45a14.68 14.68 0 0 0 1.69 5.41 9.42 9.42 0 0 0 4.3 4.12c2 1.14 3.2 1.38 4.28.75a4.31 4.31 0 0 0 1.8-3.42l1.2-10.9z"/><path class="cls-174" d="M107.54 138.47a6.38 6.38 0 0 0-.35 2.43 17.66 17.66 0 0 1 .19 3.07s1.94-6.83.83-7.57-.67 2.07-.67 2.07z"/><path class="cls-175" d="M92.89 130s11.32 5.71 14.3 10.9c1.71 3 2.16-6.53 1.69-8.59-4.96-1.17-16.88-12.73-15.99-2.31z"/><path class="cls-176" d="M96.28 131.24A9.42 9.42 0 0 0 95 133.1a17.45 17.45 0 0 0-.42 3.47l-.86-6.84.94-.33z"/></g><path id="_Clipping_Path_10" data-name="&amp;lt;Clipping Path&amp;gt;" class="cls-3" d="M117.45 322.45c0 10.5-7.37 14.76-16.47 9.51s-16.47-18-16.47-28.52 7.37-14.76 16.47-9.51 16.47 18.07 16.47 28.52z"/><g class="cls-177"><path class="cls-178" d="M102.64 325.87a2 2 0 0 1-1.64-.27 5.78 5.78 0 0 1-2.62-4.53v-9.6c0-1.67 1.16-2.35 2.61-1.52a5.78 5.78 0 0 1 2.62 4.53v9.6a1.73 1.73 0 0 1-.97 1.79z"/><path class="cls-179" d="M101.21 324l-9.27-5.35c-1.23-.71-2.5-.21-2.95 1.83l-1.59 6.73c0 2 1 4.14 2.23 4.85l22.71 13.11c1.23.71 2.23-.31 2.23-2.28l-2.1-8.83c-.6-2.77-1-4.14-2.23-4.85z"/><path class="cls-180" d="M105.12 327H105c-4.09.59-8-4.66-8.17-4.88-.58-.79-.74-1.8-.34-2.25s1.19-.17 1.77.62c.13.17 2.73 3.6 5.38 3.22.6-.09 1.39.58 1.76 1.49s.26 1.66-.28 1.8z"/><path class="cls-181" d="M92.88 300.41s.58 10 3.29 12.34 10.06 7.22 10.64 6.86 3.77-10.9 1.41-12.83c-1.52-1.23-15.34-6.37-15.34-6.37z"/><path class="cls-182" d="M96.09 309.29c0 .93-.66 1.31-1.46.85a3.24 3.24 0 0 1-1.46-2.54c0-.93.66-1.31 1.46-.85a3.24 3.24 0 0 1 1.46 2.54z"/><path class="cls-183" d="M108.61 316.52c0 .93-.66 1.31-1.46.85a3.24 3.24 0 0 1-1.46-2.54c0-.93.66-1.31 1.46-.85a3.24 3.24 0 0 1 1.46 2.54z"/><path class="cls-184" d="M93.69 299.16L95 311.72a14.08 14.08 0 0 0 1.36 4.67c1.21 2.49 2.33 4.47 4.61 5.79 2.23 1.29 3.5.36 4.69-.59a4.48 4.48 0 0 0 1.39-3.08l1.2-11z"/><path class="cls-181" d="M107.54 309.61a6.38 6.38 0 0 0-.35 2.43 17.66 17.66 0 0 1 .19 3.07s1.94-6.83.83-7.57-.67 2.07-.67 2.07z"/><path class="cls-181" d="M92.88 300.41s9.51 9.22 13.24 9.69a1.61 1.61 0 0 0 1.3-.42c2.14-1.87.21-7.56-3.21-9.93s-8-4.81-9.66-2.06c-.65 1.06-1.89 1.5-1.67 2.72z"/><path class="cls-181" d="M95.57 302.92s-.27.57-.59 1.32a17.45 17.45 0 0 0-.42 3.47l-.86-6.84.94-.33z"/></g><path class="cls-140" d="M311.66 208.89l-8.65-5a7 7 0 0 1-2.94-5.62v-8.93c0-2.17 1.32-3.16 2.94-2.23l8.65 5a7 7 0 0 1 2.94 5.62v8.93c.01 2.17-1.31 3.17-2.94 2.23zM332.8 221.09l-8.65-5a7 7 0 0 1-2.94-5.62v-8.93c0-2.17 1.32-3.16 2.94-2.23l8.65 5a7 7 0 0 1 2.94 5.62v8.93c.01 2.14-1.31 3.14-2.94 2.23zM353.94 233.3l-8.65-5a7 7 0 0 1-2.94-5.62v-8.93c0-2.17 1.32-3.16 2.94-2.23l8.65 5a7 7 0 0 1 2.94 5.62v8.93c.01 2.17-1.31 3.17-2.94 2.23z"/><path class="cls-185" d="M137.16 75.25l115.24 66.53"/></g></g></g></svg>